<?xml version="1.0" encoding="utf-8"?>
<!-- Generator: Adobe Illustrator 24.0.2, SVG Export Plug-In . SVG Version: 6.00 Build 0)  -->
<svg version="1.1" id="Capa_1" xmlns="http://www.w3.org/2000/svg" xmlns:xlink="http://www.w3.org/1999/xlink" x="0px" y="0px"
	 viewBox="0 0 290 220" style="enable-background:new 0 0 290 220;" xml:space="preserve">
<style type="text/css">
	.st0{fill:#B3B4B3;}
</style>
<g>
	<g>
		<g>
			<path class="st0" d="M37.37,128.17C37.37,128.17,37.38,128.17,37.37,128.17c4.17-1.89,8.99-2.07,13.23-0.47
				c1.91,0.72,3.72,1.79,5.22,3.1c0.95,0.95,2.13,1.43,3.53,1.43c1.39,0,2.67-0.58,3.83-1.74c0.82-0.93,1.23-2.13,1.23-3.55
				c0-0.08-0.01-0.16-0.02-0.25c-0.21-1.48-0.8-2.66-1.75-3.49c-2.58-2.18-5.45-3.9-8.56-5.12c-6.98-2.51-14.01-2.26-20.9,0.74
				c-5.02,2.27-9.02,5.67-11.87,10.1c-2.84,4.43-4.29,9.47-4.29,14.98c0,5.43,1.44,10.45,4.29,14.92c2.85,4.48,6.85,7.9,11.89,10.17
				c3.71,1.62,7.53,2.44,11.35,2.44c3.17,0,6.39-0.58,9.58-1.73c3.06-1.21,5.93-2.93,8.54-5.13c1.03-0.91,1.61-2.1,1.72-3.51
				c0.12-1.44-0.32-2.72-1.31-3.83c-1.98-1.98-4.67-2.19-7.03-0.54c-0.06,0.04-0.11,0.08-0.17,0.13c-3.29,2.94-7,4.37-11.34,4.37
				c-2.49,0-4.91-0.53-7.2-1.57c-3.11-1.38-5.62-3.5-7.45-6.3c-1.83-2.79-2.75-5.96-2.75-9.42c0-3.46,0.93-6.63,2.75-9.42
				C31.74,131.67,34.25,129.55,37.37,128.17z"/>
			<path class="st0" d="M100.28,116.48h-5.62c-2.98,0-5.83,0.59-8.49,1.75c-2.64,1.15-4.97,2.74-6.95,4.72
				c-1.98,1.98-3.57,4.32-4.72,6.95c-1.16,2.65-1.75,5.51-1.75,8.49v27.97c0,1.39,0.55,2.64,1.58,3.61c1.02,0.96,2.23,1.45,3.6,1.45
				c1.38,0,2.59-0.5,3.58-1.48c0.98-0.99,1.48-2.19,1.48-3.58v-27.97c0-1.58,0.32-3.1,0.94-4.51c0.64-1.44,1.49-2.72,2.53-3.79
				c1.02-1.05,2.26-1.91,3.7-2.54c1.41-0.62,2.93-0.94,4.51-0.94h5.62c1.37,0,2.58-0.49,3.6-1.45c1.03-0.97,1.57-2.22,1.57-3.61
				c0-1.39-0.54-2.64-1.57-3.61C102.85,116.97,101.64,116.48,100.28,116.48z"/>
			<path class="st0" d="M163.9,131.64c0-0.01-0.01-0.02-0.01-0.03c-0.03-0.19-0.09-0.38-0.18-0.56c-2.43-4.61-5.78-8.27-9.96-10.87
				c-4.19-2.61-8.92-3.93-14.04-3.93c-1.15,0-2.29,0.08-3.41,0.25c-1.07,0.16-2.18,0.36-3.32,0.6c-6.22,1.54-11.32,4.67-15.14,9.3
				c-3.82,4.72-5.85,10.39-6,16.87c-0.16,6.4,1.61,12.17,5.26,17.12c3.58,4.89,8.56,8.23,14.79,9.92c2.52,0.73,5.15,1.1,7.82,1.1
				c4.8,0,9.3-1.2,13.38-3.56c4.14-2.44,7.52-5.9,10.04-10.3c0.67-1.24,0.84-2.53,0.5-3.84c-0.33-1.3-1.15-2.35-2.31-3.01
				c-0.68-0.5-1.55-0.75-2.57-0.75c-2,0-3.6,0.92-4.47,2.57c-1.13,1.9-2.36,3.43-3.66,4.56c-1.31,1.14-2.63,2.01-3.92,2.59
				c-1.31,0.58-2.6,0.99-3.82,1.19c-1.27,0.21-2.37,0.32-3.27,0.32c-1.79,0-3.44-0.25-4.91-0.74c-0.48-0.13-1.24-0.41-2.25-0.81
				c-0.94-0.37-2.01-0.95-3.16-1.72c-1.13-0.75-2.26-1.74-3.35-2.94c-0.7-0.77-1.32-1.67-1.86-2.68l36.9-14.02
				c0.08-0.03,0.17-0.08,0.15-0.08c0.26-0.08,0.5-0.21,0.7-0.4l0.1-0.05c0.14-0.07,0.2-0.11,0.3-0.21c0.25-0.14,0.47-0.33,0.66-0.58
				c0.24-0.2,0.41-0.44,0.53-0.7c0.14-0.17,0.25-0.37,0.32-0.59c0.09-0.14,0.16-0.31,0.19-0.43c0.12-0.25,0.19-0.54,0.19-0.75
				c0.14-0.39,0.15-0.79,0.15-1.04c0-0.29-0.04-0.55-0.11-0.8C164.12,132.28,164.04,131.94,163.9,131.64z M151.11,131.12
				l-28.96,11.04c0.17-1.96,0.59-3.72,1.27-5.23c0.83-1.88,1.89-3.51,3.13-4.86c1.23-1.34,2.64-2.43,4.18-3.26
				c1.58-0.84,3.15-1.44,4.66-1.78c0.61-0.14,1.27-0.24,1.97-0.31c0.71-0.07,1.43-0.11,2.12-0.11c0.83,0,1.81,0.07,2.93,0.21
				c1.05,0.14,2.17,0.43,3.33,0.88c1.17,0.45,2.38,1.1,3.59,1.93C149.93,130.04,150.53,130.54,151.11,131.12z M161.85,137.28
				C161.85,137.28,161.85,137.28,161.85,137.28L161.85,137.28L161.85,137.28z"/>
			<path class="st0" d="M191.54,128.17C191.54,128.17,191.54,128.17,191.54,128.17c4.17-1.9,8.99-2.07,13.24-0.47
				c1.93,0.73,3.69,1.77,5.23,3.1c0.94,0.95,2.13,1.43,3.53,1.43c1.39,0,2.67-0.58,3.82-1.74c0.82-0.94,1.23-2.13,1.23-3.55
				c0-0.09-0.01-0.17-0.02-0.24c-0.21-1.48-0.79-2.66-1.74-3.49c-2.58-2.18-5.45-3.9-8.56-5.12c-6.97-2.51-14-2.26-20.9,0.74
				c-5.03,2.27-9.02,5.67-11.87,10.1c-2.84,4.43-4.29,9.47-4.29,14.98c0,5.43,1.44,10.45,4.28,14.92c2.85,4.48,6.85,7.9,11.89,10.17
				c3.71,1.62,7.53,2.44,11.35,2.44c3.17,0,6.39-0.58,9.58-1.73c3.06-1.21,5.93-2.93,8.53-5.13c1.04-0.92,1.62-2.1,1.73-3.51
				c0.12-1.44-0.32-2.72-1.3-3.83c-1.98-1.98-4.68-2.19-7.05-0.53l-0.15,0.12c-3.29,2.94-7,4.37-11.34,4.37
				c-2.49,0-4.92-0.53-7.21-1.57c-3.12-1.39-5.62-3.5-7.45-6.3c-1.82-2.79-2.75-5.96-2.75-9.42c0-3.46,0.93-6.63,2.75-9.42
				C185.91,131.68,188.42,129.55,191.54,128.17z"/>
			<path class="st0" d="M277.84,132.66c-0.01-0.39-0.09-0.73-0.22-0.97c0-0.01-0.02-0.05-0.03-0.08c-0.03-0.19-0.08-0.37-0.18-0.56
				c-2.43-4.61-5.78-8.27-9.97-10.87c-4.19-2.61-8.92-3.93-14.04-3.93c-1.15,0-2.29,0.08-3.41,0.25c-1.07,0.16-2.18,0.36-3.31,0.6
				c-6.22,1.54-11.32,4.67-15.14,9.3c-3.83,4.72-5.85,10.39-6,16.87c-0.16,6.4,1.61,12.16,5.26,17.12
				c3.59,4.89,8.56,8.23,14.79,9.92c2.52,0.73,5.15,1.1,7.82,1.1c4.8,0,9.3-1.2,13.38-3.56c4.14-2.44,7.52-5.9,10.04-10.3
				c0.67-1.24,0.84-2.53,0.5-3.84c-0.33-1.3-1.15-2.35-2.31-3.01c-0.68-0.5-1.55-0.75-2.57-0.75c-2,0-3.6,0.92-4.47,2.57
				c-1.13,1.9-2.36,3.43-3.66,4.56c-1.31,1.14-2.63,2.01-3.92,2.59c-1.31,0.59-2.6,0.99-3.82,1.19c-1.27,0.21-2.37,0.32-3.27,0.32
				c-1.79,0-3.44-0.25-4.91-0.74c-0.48-0.13-1.23-0.41-2.25-0.81c-0.94-0.37-2.01-0.95-3.16-1.72c-1.13-0.75-2.26-1.74-3.35-2.93
				c-0.7-0.76-1.32-1.66-1.85-2.68l36.9-14.02c0.08-0.03,0.17-0.08,0.15-0.08c0.26-0.08,0.5-0.21,0.7-0.4l0.1-0.05
				c0.14-0.07,0.2-0.11,0.29-0.21c0.26-0.14,0.48-0.33,0.67-0.58c0.23-0.2,0.41-0.43,0.53-0.7c0.14-0.18,0.25-0.38,0.32-0.59
				c0.09-0.14,0.16-0.3,0.19-0.43c0.12-0.25,0.19-0.54,0.19-0.75c0.14-0.39,0.15-0.79,0.15-1.04
				C277.96,133.17,277.92,132.91,277.84,132.66z M264.82,131.12l-28.97,11.04c0.17-1.96,0.59-3.72,1.27-5.23
				c0.83-1.88,1.89-3.51,3.13-4.86c1.23-1.34,2.64-2.43,4.18-3.26c1.58-0.84,3.15-1.44,4.66-1.78c0.61-0.14,1.27-0.24,1.97-0.31
				c0.71-0.07,1.43-0.11,2.12-0.11c0.83,0,1.81,0.07,2.93,0.21c1.05,0.14,2.17,0.43,3.33,0.88c1.17,0.45,2.38,1.1,3.59,1.93
				C263.65,130.04,264.24,130.54,264.82,131.12z M277.19,131.81C277.19,131.81,277.19,131.81,277.19,131.81L277.19,131.81
				L277.19,131.81z"/>
		</g>
		<path class="st0" d="M31.58,62.49l28.04-24.98h0c0-0.01,0.01-0.01,0.02-0.02l28.06,25c3.34,2.97,8.32,2.51,11.12-1.03
			c2.8-3.54,2.36-8.83-0.97-11.8L69.76,24.64c-2.26-2.01-4.89-3.21-7.61-3.66c-0.01,0-0.01,0-0.02,0c-0.83-0.14-1.66-0.21-2.49-0.21
			c-0.01,0-0.01,0-0.02,0c-0.36,0-0.72,0.02-1.08,0.05c-0.03,0-0.06,0-0.09,0c-0.04,0.01-0.09,0.01-0.13,0.01
			c-0.02,0-0.04,0-0.07,0.01c-3.11,0.27-6.17,1.52-8.74,3.81L21.44,49.65c-3.34,2.97-3.77,8.26-0.97,11.8
			C23.27,65,28.24,65.46,31.58,62.49"/>
		<path class="st0" d="M97.84,87.33L69.76,62.31c-2.25-2-4.88-3.2-7.59-3.66c-0.02,0-0.04-0.01-0.06-0.01
			c-0.82-0.13-1.64-0.21-2.46-0.21c-0.01,0-0.02,0-0.03,0c-0.36,0-0.72,0.02-1.08,0.05c-0.04,0-0.07,0-0.11,0.01
			c-0.03,0-0.07,0-0.1,0.01c-0.03,0-0.05,0-0.08,0c-3.11,0.28-6.17,1.53-8.74,3.81L21.44,87.33c-3.34,2.97-3.77,8.26-0.98,11.8
			c2.8,3.54,7.78,4,11.12,1.03l28.04-24.98l0,0c0.01-0.01,0.01-0.01,0.01-0.02l28.06,25c3.34,2.97,8.31,2.51,11.12-1.03
			C101.62,95.58,101.18,90.3,97.84,87.33"/>
	</g>
	<g>
		<path class="st0" d="M20.56,192.98c0.24,0,0.44,0.09,0.61,0.26c0.17,0.17,0.25,0.38,0.25,0.62c0,0.24-0.08,0.44-0.25,0.61
			c-0.17,0.17-0.37,0.26-0.61,0.26c-0.23,0-0.43-0.09-0.6-0.26c-0.17-0.17-0.25-0.37-0.25-0.61c0-0.24,0.08-0.45,0.25-0.62
			C20.13,193.07,20.33,192.98,20.56,192.98z M20.05,196.35h1.04v8.19h-1.04V196.35z"/>
		<path class="st0" d="M25.68,196.35h1.04v1.47c0.42-0.56,0.88-0.98,1.38-1.26c0.5-0.28,1.05-0.42,1.65-0.42
			c0.6,0,1.14,0.16,1.61,0.47c0.47,0.31,0.81,0.73,1.03,1.26c0.22,0.53,0.33,1.35,0.33,2.46v4.22h-1.04v-3.91
			c0-0.94-0.04-1.57-0.12-1.89c-0.12-0.54-0.35-0.95-0.69-1.22c-0.34-0.27-0.79-0.41-1.33-0.41c-0.63,0-1.19,0.21-1.69,0.63
			c-0.5,0.42-0.83,0.94-0.98,1.57c-0.1,0.41-0.15,1.15-0.15,2.23v3h-1.04V196.35z"/>
		<path class="st0" d="M37.37,196.35h1.04v1.41c0.36-0.52,0.73-0.9,1.11-1.14c0.52-0.32,1.08-0.48,1.66-0.48
			c0.39,0,0.76,0.08,1.11,0.23c0.35,0.16,0.64,0.36,0.86,0.62c0.22,0.26,0.42,0.63,0.58,1.11c0.34-0.64,0.78-1.13,1.3-1.46
			c0.52-0.33,1.07-0.5,1.67-0.5c0.56,0,1.05,0.14,1.48,0.43c0.43,0.29,0.74,0.69,0.95,1.2c0.21,0.51,0.31,1.28,0.31,2.3v4.47h-1.06
			v-4.47c0-0.88-0.06-1.48-0.19-1.81c-0.12-0.33-0.33-0.59-0.63-0.79c-0.3-0.2-0.65-0.3-1.07-0.3c-0.5,0-0.96,0.15-1.38,0.45
			c-0.42,0.3-0.72,0.7-0.91,1.2c-0.19,0.5-0.29,1.34-0.29,2.51v3.21h-1.04v-4.19c0-0.99-0.06-1.66-0.18-2.01
			c-0.12-0.35-0.33-0.64-0.64-0.85c-0.3-0.21-0.66-0.32-1.07-0.32c-0.48,0-0.93,0.15-1.35,0.44c-0.42,0.29-0.73,0.69-0.93,1.19
			s-0.3,1.26-0.3,2.28v3.47h-1.04V196.35z"/>
		<path class="st0" d="M57.88,196.14c1.24,0,2.27,0.46,3.09,1.37c0.74,0.83,1.12,1.82,1.12,2.96c0,1.14-0.39,2.14-1.18,3
			c-0.79,0.86-1.8,1.28-3.03,1.28c-1.24,0-2.25-0.43-3.04-1.28c-0.78-0.86-1.18-1.86-1.18-3c0-1.13,0.37-2.12,1.11-2.95
			C55.6,196.6,56.63,196.14,57.88,196.14z M57.88,197.17c-0.86,0-1.6,0.32-2.23,0.97c-0.62,0.65-0.93,1.43-0.93,2.35
			c0,0.59,0.14,1.14,0.42,1.66c0.28,0.51,0.66,0.91,1.15,1.19c0.48,0.28,1.01,0.42,1.59,0.42c0.58,0,1.1-0.14,1.59-0.42
			c0.48-0.28,0.86-0.67,1.15-1.19c0.28-0.51,0.42-1.06,0.42-1.66c0-0.92-0.31-1.7-0.93-2.35C59.48,197.5,58.74,197.17,57.88,197.17z
			"/>
		<path class="st0" d="M66.51,204.54v-11.35h1.04v4.57c0.43-0.54,0.92-0.95,1.46-1.22c0.54-0.27,1.13-0.4,1.77-0.4
			c1.14,0,2.12,0.42,2.92,1.26c0.81,0.84,1.21,1.86,1.21,3.06c0,1.18-0.41,2.2-1.22,3.03c-0.82,0.84-1.8,1.26-2.94,1.26
			c-0.66,0-1.25-0.14-1.79-0.43c-0.53-0.29-1.01-0.71-1.42-1.29v1.51H66.51z M70.66,203.74c0.58,0,1.11-0.14,1.6-0.43
			c0.49-0.29,0.88-0.69,1.16-1.22c0.29-0.52,0.43-1.07,0.43-1.66c0-0.58-0.15-1.14-0.44-1.66c-0.29-0.53-0.68-0.94-1.17-1.23
			c-0.49-0.29-1.02-0.44-1.57-0.44c-0.57,0-1.11,0.15-1.62,0.44c-0.51,0.29-0.9,0.69-1.18,1.19c-0.27,0.5-0.41,1.06-0.41,1.68
			c0,0.95,0.31,1.74,0.92,2.38C69.01,203.42,69.77,203.74,70.66,203.74z"/>
		<path class="st0" d="M79.6,192.98c0.24,0,0.44,0.09,0.61,0.26c0.17,0.17,0.25,0.38,0.25,0.62c0,0.24-0.08,0.44-0.25,0.61
			c-0.17,0.17-0.37,0.26-0.61,0.26c-0.23,0-0.43-0.09-0.6-0.26c-0.17-0.17-0.25-0.37-0.25-0.61c0-0.24,0.08-0.45,0.25-0.62
			C79.17,193.07,79.37,192.98,79.6,192.98z M79.08,196.35h1.04v8.19h-1.04V196.35z"/>
		<path class="st0" d="M84.56,193.19h1.04v11.35h-1.04V193.19z"/>
		<path class="st0" d="M90.55,192.98c0.24,0,0.44,0.09,0.61,0.26c0.17,0.17,0.25,0.38,0.25,0.62c0,0.24-0.08,0.44-0.25,0.61
			c-0.17,0.17-0.37,0.26-0.61,0.26c-0.23,0-0.43-0.09-0.6-0.26c-0.17-0.17-0.25-0.37-0.25-0.61c0-0.24,0.08-0.45,0.25-0.62
			C90.12,193.07,90.31,192.98,90.55,192.98z M90.03,196.35h1.04v8.19h-1.04V196.35z"/>
		<path class="st0" d="M103.7,196.35v8.19h-1.02v-1.41c-0.44,0.54-0.92,0.94-1.47,1.21c-0.54,0.27-1.13,0.41-1.78,0.41
			c-1.14,0-2.12-0.42-2.93-1.26c-0.81-0.84-1.21-1.86-1.21-3.07c0-1.18,0.41-2.19,1.22-3.03c0.82-0.84,1.8-1.26,2.95-1.26
			c0.66,0,1.26,0.14,1.8,0.43c0.54,0.29,1.01,0.72,1.41,1.29v-1.51H103.7z M99.55,197.16c-0.58,0-1.11,0.14-1.6,0.43
			c-0.49,0.29-0.88,0.69-1.17,1.21c-0.29,0.52-0.43,1.07-0.43,1.65c0,0.58,0.15,1.13,0.44,1.65c0.29,0.53,0.68,0.94,1.18,1.23
			c0.49,0.29,1.02,0.44,1.58,0.44c0.57,0,1.11-0.15,1.62-0.44c0.51-0.29,0.9-0.68,1.18-1.18c0.27-0.5,0.41-1.06,0.41-1.68
			c0-0.95-0.31-1.74-0.92-2.38C101.21,197.48,100.45,197.16,99.55,197.16z"/>
		<path class="st0" d="M108.08,196.35h1.06v1.2c0.32-0.47,0.65-0.82,1-1.06c0.35-0.23,0.72-0.35,1.1-0.35
			c0.29,0,0.59,0.09,0.92,0.28l-0.54,0.89c-0.22-0.1-0.4-0.14-0.55-0.14c-0.35,0-0.68,0.14-1,0.43c-0.32,0.29-0.57,0.74-0.73,1.34
			c-0.13,0.47-0.19,1.41-0.19,2.83v2.77h-1.06V196.35z"/>
		<path class="st0" d="M115.83,192.98c0.24,0,0.44,0.09,0.61,0.26c0.17,0.17,0.25,0.38,0.25,0.62c0,0.24-0.08,0.44-0.25,0.61
			c-0.17,0.17-0.37,0.26-0.61,0.26c-0.23,0-0.43-0.09-0.6-0.26c-0.17-0.17-0.25-0.37-0.25-0.61c0-0.24,0.08-0.45,0.25-0.62
			C115.4,193.07,115.6,192.98,115.83,192.98z M115.32,196.35h1.04v8.19h-1.04V196.35z"/>
		<path class="st0" d="M128.99,196.35v8.19h-1.02v-1.41c-0.44,0.54-0.92,0.94-1.47,1.21c-0.54,0.27-1.13,0.41-1.78,0.41
			c-1.14,0-2.12-0.42-2.93-1.26c-0.81-0.84-1.21-1.86-1.21-3.07c0-1.18,0.41-2.19,1.22-3.03s1.8-1.26,2.95-1.26
			c0.66,0,1.26,0.14,1.8,0.43c0.54,0.29,1.01,0.72,1.41,1.29v-1.51H128.99z M124.84,197.16c-0.58,0-1.11,0.14-1.6,0.43
			c-0.49,0.29-0.88,0.69-1.17,1.21c-0.29,0.52-0.43,1.07-0.43,1.65c0,0.58,0.15,1.13,0.44,1.65c0.29,0.53,0.68,0.94,1.18,1.23
			c0.49,0.29,1.02,0.44,1.58,0.44c0.57,0,1.11-0.15,1.62-0.44c0.51-0.29,0.9-0.68,1.18-1.18c0.27-0.5,0.41-1.06,0.41-1.68
			c0-0.95-0.31-1.74-0.92-2.38C126.49,197.48,125.74,197.16,124.84,197.16z"/>
		<path class="st0" d="M139.53,196.35h1.1l2.78,6.31l2.69-6.31h1.11l-4.81,11.18h-1.1l1.55-3.62L139.53,196.35z"/>
		<path class="st0" d="M165.45,198.06l-0.82,0.52c-0.71-0.96-1.68-1.44-2.91-1.44c-0.98,0-1.8,0.32-2.45,0.96
			c-0.65,0.64-0.97,1.42-0.97,2.34c0,0.6,0.15,1.16,0.45,1.68c0.3,0.53,0.71,0.93,1.23,1.23c0.52,0.29,1.11,0.44,1.75,0.44
			c1.19,0,2.16-0.48,2.91-1.44l0.82,0.55c-0.39,0.59-0.9,1.05-1.56,1.37c-0.65,0.33-1.39,0.49-2.22,0.49
			c-1.28,0-2.34-0.41-3.18-1.23c-0.84-0.82-1.26-1.82-1.26-3c0-0.79,0.2-1.53,0.59-2.21c0.39-0.68,0.93-1.21,1.62-1.59
			c0.69-0.38,1.46-0.57,2.31-0.57c0.53,0,1.05,0.08,1.55,0.25c0.5,0.17,0.92,0.38,1.27,0.65
			C164.91,197.31,165.21,197.64,165.45,198.06z"/>
		<path class="st0" d="M173.7,196.14c1.24,0,2.27,0.46,3.09,1.37c0.74,0.83,1.12,1.82,1.12,2.96c0,1.14-0.39,2.14-1.18,3
			c-0.79,0.86-1.8,1.28-3.03,1.28c-1.24,0-2.25-0.43-3.04-1.28c-0.78-0.86-1.18-1.86-1.18-3c0-1.13,0.37-2.12,1.11-2.95
			C171.41,196.6,172.45,196.14,173.7,196.14z M173.69,197.17c-0.86,0-1.61,0.32-2.23,0.97c-0.62,0.65-0.93,1.43-0.93,2.35
			c0,0.59,0.14,1.14,0.42,1.66c0.28,0.51,0.66,0.91,1.15,1.19c0.48,0.28,1.01,0.42,1.59,0.42c0.58,0,1.1-0.14,1.59-0.42
			c0.48-0.28,0.86-0.67,1.15-1.19c0.28-0.51,0.42-1.06,0.42-1.66c0-0.92-0.31-1.7-0.93-2.35
			C175.29,197.5,174.55,197.17,173.69,197.17z"/>
		<path class="st0" d="M182.26,196.35h1.04v1.47c0.42-0.56,0.88-0.98,1.38-1.26c0.5-0.28,1.05-0.42,1.65-0.42
			c0.6,0,1.14,0.16,1.61,0.47c0.47,0.31,0.81,0.73,1.03,1.26c0.22,0.53,0.33,1.35,0.33,2.46v4.22h-1.04v-3.91
			c0-0.94-0.04-1.57-0.12-1.89c-0.12-0.54-0.35-0.95-0.69-1.22c-0.34-0.27-0.79-0.41-1.33-0.41c-0.63,0-1.19,0.21-1.69,0.63
			s-0.83,0.94-0.98,1.57c-0.1,0.41-0.15,1.15-0.15,2.23v3h-1.04V196.35z"/>
		<path class="st0" d="M198.01,197.25l-0.67,0.7c-0.56-0.55-1.1-0.82-1.63-0.82c-0.34,0-0.63,0.11-0.87,0.34
			c-0.24,0.23-0.36,0.49-0.36,0.79c0,0.27,0.1,0.52,0.3,0.76c0.2,0.25,0.61,0.53,1.25,0.87c0.77,0.41,1.3,0.8,1.58,1.17
			c0.27,0.38,0.41,0.81,0.41,1.29c0,0.67-0.23,1.24-0.7,1.71c-0.47,0.47-1.05,0.7-1.75,0.7c-0.47,0-0.91-0.1-1.33-0.31
			c-0.42-0.21-0.77-0.49-1.05-0.85l0.65-0.75c0.53,0.61,1.09,0.91,1.69,0.91c0.42,0,0.77-0.14,1.06-0.41
			c0.29-0.27,0.44-0.59,0.44-0.96c0-0.3-0.1-0.57-0.29-0.81c-0.19-0.23-0.63-0.52-1.31-0.87c-0.73-0.38-1.22-0.76-1.49-1.13
			c-0.26-0.37-0.39-0.8-0.39-1.27c0-0.62,0.21-1.14,0.63-1.55c0.42-0.41,0.95-0.62,1.59-0.62
			C196.51,196.14,197.26,196.51,198.01,197.25z"/>
		<path class="st0" d="M203.19,193.31h1.04v3.04h1.65v0.91h-1.65v7.28h-1.04v-7.28h-1.42v-0.91h1.42V193.31z"/>
		<path class="st0" d="M209.47,196.35h1.06v1.2c0.32-0.47,0.65-0.82,1-1.06c0.35-0.23,0.72-0.35,1.1-0.35
			c0.29,0,0.59,0.09,0.92,0.28l-0.54,0.89c-0.22-0.1-0.4-0.14-0.55-0.14c-0.35,0-0.68,0.14-1,0.43c-0.32,0.29-0.57,0.74-0.73,1.34
			c-0.13,0.47-0.19,1.41-0.19,2.83v2.77h-1.06V196.35z"/>
		<path class="st0" d="M216.73,196.35h1.04v3.82c0,0.93,0.05,1.58,0.15,1.93c0.15,0.5,0.43,0.9,0.85,1.19
			c0.42,0.29,0.92,0.44,1.5,0.44c0.58,0,1.07-0.14,1.47-0.43c0.4-0.28,0.68-0.66,0.84-1.12c0.1-0.32,0.16-0.99,0.16-2.01v-3.82h1.06
			v4.02c0,1.13-0.13,1.98-0.39,2.55c-0.26,0.57-0.65,1.02-1.17,1.34c-0.52,0.32-1.18,0.48-1.96,0.48c-0.79,0-1.44-0.16-1.97-0.48
			c-0.53-0.32-0.92-0.78-1.18-1.36c-0.26-0.58-0.39-1.45-0.39-2.62V196.35z"/>
		<path class="st0" d="M236.37,198.06l-0.82,0.52c-0.71-0.96-1.68-1.44-2.91-1.44c-0.98,0-1.8,0.32-2.45,0.96
			c-0.65,0.64-0.97,1.42-0.97,2.34c0,0.6,0.15,1.16,0.45,1.68c0.3,0.53,0.71,0.93,1.23,1.23c0.52,0.29,1.11,0.44,1.75,0.44
			c1.19,0,2.16-0.48,2.91-1.44l0.82,0.55c-0.39,0.59-0.9,1.05-1.56,1.37c-0.65,0.33-1.39,0.49-2.22,0.49
			c-1.28,0-2.34-0.41-3.18-1.23c-0.84-0.82-1.26-1.82-1.26-3c0-0.79,0.2-1.53,0.59-2.21c0.39-0.68,0.93-1.21,1.62-1.59
			c0.69-0.38,1.46-0.57,2.31-0.57c0.53,0,1.05,0.08,1.55,0.25c0.5,0.17,0.92,0.38,1.27,0.65
			C235.84,197.31,236.13,197.64,236.37,198.06z"/>
		<path class="st0" d="M248.64,198.06l-0.82,0.52c-0.71-0.96-1.68-1.44-2.91-1.44c-0.98,0-1.8,0.32-2.45,0.96
			c-0.65,0.64-0.97,1.42-0.97,2.34c0,0.6,0.15,1.16,0.45,1.68c0.3,0.53,0.71,0.93,1.23,1.23c0.52,0.29,1.11,0.44,1.75,0.44
			c1.19,0,2.16-0.48,2.91-1.44l0.82,0.55c-0.39,0.59-0.9,1.05-1.56,1.37c-0.65,0.33-1.39,0.49-2.22,0.49
			c-1.28,0-2.34-0.41-3.18-1.23c-0.84-0.82-1.26-1.82-1.26-3c0-0.79,0.2-1.53,0.59-2.21s0.93-1.21,1.62-1.59
			c0.69-0.38,1.46-0.57,2.31-0.57c0.53,0,1.05,0.08,1.55,0.25c0.5,0.17,0.92,0.38,1.27,0.65
			C248.1,197.31,248.39,197.64,248.64,198.06z"/>
		<path class="st0" d="M253.42,192.98c0.24,0,0.44,0.09,0.61,0.26c0.17,0.17,0.25,0.38,0.25,0.62c0,0.24-0.08,0.44-0.25,0.61
			c-0.17,0.17-0.37,0.26-0.61,0.26c-0.23,0-0.43-0.09-0.6-0.26c-0.17-0.17-0.25-0.37-0.25-0.61c0-0.24,0.08-0.45,0.25-0.62
			C252.99,193.07,253.19,192.98,253.42,192.98z M252.91,196.35h1.04v8.19h-1.04V196.35z"/>
		<path class="st0" d="M262.36,196.14c1.24,0,2.27,0.46,3.09,1.37c0.74,0.83,1.12,1.82,1.12,2.96c0,1.14-0.39,2.14-1.18,3
			c-0.79,0.86-1.8,1.28-3.03,1.28c-1.24,0-2.25-0.43-3.04-1.28c-0.78-0.86-1.18-1.86-1.18-3c0-1.13,0.37-2.12,1.11-2.95
			C260.07,196.6,261.11,196.14,262.36,196.14z M262.35,197.17c-0.86,0-1.6,0.32-2.23,0.97c-0.62,0.65-0.93,1.43-0.93,2.35
			c0,0.59,0.14,1.14,0.42,1.66c0.28,0.51,0.66,0.91,1.15,1.19c0.48,0.28,1.01,0.42,1.59,0.42c0.58,0,1.1-0.14,1.59-0.42
			c0.48-0.28,0.86-0.67,1.15-1.19c0.28-0.51,0.42-1.06,0.42-1.66c0-0.92-0.31-1.7-0.93-2.35
			C263.95,197.5,263.21,197.17,262.35,197.17z M262.87,192.52h1.59l-2.19,2.32h-1.02L262.87,192.52z"/>
		<path class="st0" d="M270.92,196.35h1.04v1.47c0.42-0.56,0.88-0.98,1.38-1.26c0.5-0.28,1.05-0.42,1.65-0.42
			c0.6,0,1.14,0.16,1.61,0.47c0.47,0.31,0.81,0.73,1.03,1.26c0.22,0.53,0.33,1.35,0.33,2.46v4.22h-1.04v-3.91
			c0-0.94-0.04-1.57-0.12-1.89c-0.12-0.54-0.35-0.95-0.69-1.22c-0.34-0.27-0.79-0.41-1.33-0.41c-0.63,0-1.19,0.21-1.69,0.63
			c-0.5,0.42-0.83,0.94-0.98,1.57c-0.1,0.41-0.15,1.15-0.15,2.23v3h-1.04V196.35z"/>
	</g>
</g>
</svg>
