<?xml version="1.0" encoding="utf-8"?>
<!-- Generator: Adobe Illustrator 25.4.8, SVG Export Plug-In . SVG Version: 6.00 Build 0)  -->
<svg version="1.1" id="Capa_1" xmlns="http://www.w3.org/2000/svg" xmlns:xlink="http://www.w3.org/1999/xlink" x="0px" y="0px"
	 viewBox="0 0 102 102" style="enable-background:new 0 0 102 102;" xml:space="preserve">
<style type="text/css">
	.st0{fill:#8D75B4;}
	.st1{fill:#48B488;}
</style>
<g>
	<path class="st0" d="M48.1,68.3c2,0,3.9,0,5.9,0c0-0.5,0-0.9,0-1.4c0-6.3,0-12.6,0-18.9c0-0.3-0.1-0.7,0-1c0.2-0.4,0.6-0.7,0.9-1.1
		c0.3,0.4,0.7,0.7,0.9,1.1c0.1,0.3,0,0.7,0,1.1c0,6.2,0,12.3,0,18.5c0,0.5,0,1,0,1.5c0.8,0.3,2.2-0.1,2.1,1.4c0,0.9,0,1.8,0,2.8
		c1.7,0,3.4,0,5.2,0c0-0.7,0-1.3,0-1.9c0-2,0-2,2-2.2c0-8.3,0-16.6,0-25c-0.3,0-0.5-0.1-0.8-0.1c-0.9,0-1.2-0.5-1.2-1.4
		c0-0.5,0-1,0-1.5c0-0.6,0.2-1.3-0.7-1.6c-0.2-0.1-0.4-0.7-0.3-0.9c0.1-0.3,0.5-0.5,0.8-0.6c0.3-0.1,0.7,0,1.1,0
		c4.6,0,9.1,0,13.8-0.2c-1.4-0.8-2.7-1.6-4.1-2.4c-0.4-0.2-0.8-0.3-1-0.6c-0.3-0.3-0.3-0.8-0.5-1.2c0.5-0.1,0.9-0.3,1.4-0.3
		c0.4,0,0.7,0.4,1.1,0.6c2.3,1.3,4.6,2.6,6.9,4c0.4,0.3,0.6,0.9,1,1.4c-0.5,0.2-1,0.6-1.4,0.6c-1.3,0.1-2.6,0-4.1,0c0,0.8,0,1.4,0,2
		c0,2,0,2-2,2.2c0,8.3,0,16.7,0,25c2,0.3,2,0.3,2,2.3c0,0.6,0,1.2,0,1.6c1,0.4,2.3,0.5,2.6,1.2c0.4,0.7,0.1,1.9,0.1,2.8
		c0.2,0.2,0.3,0.3,0.4,0.3c2.8,0,2.5,0.2,2.5,2.8c0,3.8,0.2,3.4-3.4,3.4c-19.3,0-38.5,0-57.8,0c-1.9,0-2-0.1-2-2c0-0.7,0-1.5,0-2.2
		c0-1.7,0.2-1.8,1.8-1.9c0.3,0,0.6,0,1-0.1c0-0.8,0-1.5,0-2.2c-0.1-1.1,0.4-1.6,1.5-1.5c0.4,0,0.8,0,1.3-0.1c0-0.7,0-1.2,0-1.8
		c0-2.1,0-2.1,2-2.5c0-8.3,0-16.6,0-25c-3.5,0-1.3-2.7-2.3-4.3c-1.1,0-2.5,0.1-3.8,0c-0.5,0-1-0.4-1.4-0.6c0.3-0.4,0.5-1.1,0.9-1.3
		c9.9-5.8,19.8-11.5,29.8-17.2c0.4-0.2,1.2-0.3,1.7,0c6.3,3.6,12.5,7.2,18.7,10.8c0.6,0.3,1.2,0.7,0.7,1.5c-0.5,0.8-1.1,0.4-1.7,0.1
		c-5.8-3.4-11.6-6.7-17.4-10.1c-0.8-0.5-1.4-0.5-2.2,0c-8.1,4.8-16.3,9.5-24.4,14.2c-0.4,0.2-0.8,0.5-1.4,0.9c0.6,0,0.9,0.1,1.3,0.1
		c4.3,0,8.6,0,12.8,0c0.5,0,1.1,0.3,1.6,0.5c-0.2,0.4-0.5,0.9-0.7,1.3c-0.1,0.2-0.2,0.4-0.2,0.7c0,0.5,0,0.9,0,1.4c0,2,0,2-2,2.2
		c0,8.3,0,16.6,0,25c0.2,0,0.4,0.1,0.7,0.1c1,0,1.4,0.5,1.3,1.5c0,0.9,0,1.7,0,2.6c1.7,0,3.4,0,5.2,0c0-0.7,0-1.3,0-2c0-2,0-2,2-2.2
		c0-0.4,0.1-0.9,0.1-1.4c0-6.2,0-12.3,0-18.5c0-0.3-0.1-0.7,0-1c0.2-0.5,0.5-1.3,0.9-1.3c0.9-0.1,1,0.6,1,1.4c0,6.5,0,12.9,0,19.4
		C48.1,67.3,48.1,67.8,48.1,68.3z M77.8,74.5c-17.9,0-35.7,0-53.6,0c0,0.7,0,1.2,0,1.9c2.9,0,5.7,0,8.5,0c0.7,0,1.4,0.1,1.4,1
		c0,0.9-0.7,0.9-1.4,0.9c-1.6,0-3.1,0-4.7,0c-2.2,0-4.3,0-6.5,0c0,0.8,0,1.5,0,2.3c19.7,0,39.4,0,59.1,0c0-0.8,0-1.5,0-2.3
		c-0.6,0-1.1,0-1.6,0c-14,0-28,0-42,0c-0.7,0-1.5,0.1-1.6-0.9c0-1,0.8-1,1.5-1c0.2,0,0.5,0,0.7,0c12.9,0,25.8,0,38.6,0
		c0.5,0,1,0,1.5,0C77.8,75.7,77.8,75.1,77.8,74.5z M34.9,43.2c-2,0-3.9,0-5.8,0c0,8.4,0,16.7,0,25.1c2,0,3.9,0,5.8,0
		C34.9,59.9,34.9,51.6,34.9,43.2z M72.9,68.3c0-8.4,0-16.8,0-25.1c-2,0-3.9,0-5.8,0c0,8.4,0,16.8,0,25.1
		C69.1,68.3,71,68.3,72.9,68.3z M27,41.1c3.4,0,6.7,0,9.9,0c0-0.8,0-1.5,0-2.1c-3.4,0-6.6,0-9.9,0C27,39.8,27,40.4,27,41.1z
		 M65.1,41.2c3.3,0,6.6,0,10,0c0-0.7,0-1.4,0-2.2c-3.3,0-6.6,0-10,0C65.1,39.7,65.1,40.4,65.1,41.2z M27,72.5c3.3,0,6.6,0,10,0
		c0-0.8,0-1.4,0-2.2c-3.3,0-6.6,0-10,0C27,71,27,71.7,27,72.5z M56,70.4c-3.4,0-6.7,0-9.9,0c0,0.8,0,1.4,0,2.1c3.4,0,6.6,0,9.9,0
		C56,71.7,56,71.1,56,70.4z M65,72.5c3.4,0,6.7,0,10,0c0-0.7,0-1.4,0-2.2c-3.3,0-6.6,0-9.9,0c0,0.3-0.1,0.6-0.1,0.9
		C65,71.6,65,72,65,72.5z"/>
	<path class="st1" d="M61.2,35.6c0,5.7-4.7,10.2-10.3,10.2c-5.6-0.1-10.1-4.7-10.1-10.3c0.1-5.6,4.7-10.2,10.3-10.1
		C56.7,25.3,61.3,29.9,61.2,35.6z M51,43.8c4.6,0,8.4-3.6,8.4-8.2c0.1-4.6-3.7-8.4-8.2-8.4c-4.7,0-8.5,3.7-8.5,8.3
		C42.6,40.1,46.4,43.8,51,43.8z"/>
	<path class="st1" d="M50.1,39.3c0-0.8,0.1-1.6,0-2.4c0-0.3-0.4-0.6-0.7-0.7c-1.4-0.6-2.3-1.6-2.3-3.2c0-1.6,1-2.5,2.3-3.2
		c0.3-0.2,0.6-0.5,0.8-0.8c0.5-0.7,1.1-0.7,1.7,0c0.3,0.3,0.6,0.6,0.9,0.8c1.1,0.6,2,1.4,2.1,2.7c0,0.4-0.4,0.9-0.7,1.4
		c-0.4-0.3-0.8-0.6-1.1-0.9c-0.3-0.4-0.6-0.9-0.8-1.3c-0.1,0-0.2,0.1-0.4,0.1c0,0.8-0.1,1.6,0,2.4c0,0.3,0.4,0.6,0.6,0.7
		C54,35.5,55,36.4,55,38c0,1.7-0.9,2.7-2.4,3.2c-0.8,0.3-0.9,2.3-2.3,0.9c-0.7-0.7-1.6-1.1-2.2-1.8c-0.5-0.5-0.8-1.2-0.9-1.8
		c-0.1-0.4,0.4-0.9,0.7-1.4c0.4,0.3,0.8,0.6,1.1,0.9c0.3,0.4,0.5,0.9,0.8,1.3C49.8,39.3,49.9,39.3,50.1,39.3z M52.1,39.2
		c0.1,0,0.3,0.1,0.4,0.1c0.2-0.5,0.6-1,0.5-1.5c0-0.4-0.5-0.8-0.8-1.1c-0.1,0.1-0.2,0.1-0.2,0.2C52.1,37.7,52.1,38.5,52.1,39.2z
		 M50,34.2c0-0.9,0-1.7,0-2.5C48.6,32.5,48.6,33.4,50,34.2z"/>
</g>
</svg>
