<?xml version="1.0" encoding="utf-8"?>
<!-- Generator: Adobe Illustrator 25.4.8, SVG Export Plug-In . SVG Version: 6.00 Build 0)  -->
<svg version="1.1" id="Capa_1" xmlns="http://www.w3.org/2000/svg" xmlns:xlink="http://www.w3.org/1999/xlink" x="0px" y="0px"
	 viewBox="0 0 102 102" style="enable-background:new 0 0 102 102;" xml:space="preserve">
<style type="text/css">
	.st0{fill:#8D75B4;}
	.st1{fill:#48B488;}
</style>
<g>
	<path class="st0" d="M25.2,51.6c-0.4-0.6-0.6-1-0.9-1.3c-1.4-1.4-2.1-3.1-2.3-5c-0.2-2.1-0.2-4.1-0.4-6.2c-0.2-2.4,0.9-4.1,2.8-5.4
		c2.4-1.7,5.2-2.4,8.2-2c1.3,0.2,2.3,0.7,2.9,2c0.2,0.5,0.7,0.9,1.1,1.3c1.7,1.7,1.9,3.4,1,5.6c-0.4,0.8-0.7,1.7-0.6,2.5
		c0.1,3.1-0.6,5.8-3.1,7.9c-0.2,0.1-0.2,0.4-0.2,0.4c1.8,0.5,3.5,1,5.2,1.5c0.3,0.1,0.7,0,1-0.1c1.1-0.3,2.2-0.8,3.4-1
		c1.4-0.3,1.8-1.4,1-2.6c-1.4-1.9-2-3.9-2.1-6.2c-0.1-2.3-0.3-4.5-0.5-6.8c-0.3-2.6,0.9-4.7,2.8-6.2c3.3-2.5,7-3.6,11.2-2.7
		c1.3,0.3,2.2,0.9,2.8,2.2c0.3,0.6,0.8,1.2,1.3,1.6c2.3,2.1,2.7,4.3,1.3,7.1c-0.4,0.8-0.7,1.7-0.7,2.5c0,3.2-0.3,6.3-2.5,9
		c-0.6,0.7,0,1.9,0.9,2.1c1.2,0.3,2.5,0.8,3.7,1.1c0.3,0.1,0.7,0.1,1,0c1.6-0.5,3.3-1,5.1-1.5c-0.2-0.3-0.4-0.7-0.7-1.1
		c-1.3-1.4-2.1-3.1-2.3-5.1c-0.2-2-0.2-4-0.4-5.9c-0.3-2.6,0.9-4.4,3-5.8c2.4-1.6,5.1-2.2,7.9-1.8c1.3,0.2,2.3,0.7,2.9,2
		c0.2,0.5,0.7,0.9,1.1,1.4c1.7,1.7,2,3.5,1,5.7c-0.3,0.7-0.6,1.5-0.6,2.2c0.1,3.2-0.6,6-3.2,8.1C77,51.1,77,51.2,77,51.3
		c0,0.1,0,0.2,0,0.3c1.1,0.1,2.2,0.1,3.3,0.5c4.2,1.3,6.1,4.5,6.7,8.6c0.3,2.4,0.5,4.8,0.6,7.3c0.1,2.2-0.7,2.9-2.9,2.9
		c-4.5,0-8.9,0-13.4,0c-0.5,0-1.1,0-1.8,0c0,0.8,0,1.5,0,2.2c0,1.7-0.3,2-2,2c-9.3,0-18.6,0-27.8,0c-1.7,0-3.4-0.1-5.1,0
		c-1.4,0.1-2-0.5-1.9-1.9c0-0.7,0-1.4,0-2.3c-0.6,0-1.1-0.1-1.6-0.1c-4.4,0-8.8,0-13.2,0c-2.8,0-3.4-0.6-3.3-3.5
		c0.1-2.4,0.3-4.9,0.7-7.2C16.2,54.6,19.1,52.1,25.2,51.6z M32.7,68.5c0.6-4.9,0.5-10,4.3-13.8c-1.6-1.1-2.8-0.5-4.1,0.4
		c-3.7,2.6-3.8,2.7-7.4-0.1c-1.6-1.2-3.1-1.2-4.4-0.2c-1.1,0.9-2.4,2-2.9,3.2c-1.4,3.3-1.4,6.8-1.4,10.3c1.2,0,2.3,0,3.4,0
		c0-2,0-3.9,0-5.7c0-0.9,0-1.9,1.2-1.8c1.1,0,1.1,1,1.1,1.8c0,1.9,0,3.8,0,5.8C26,68.5,29.3,68.5,32.7,68.5z M69.3,68.5
		c3.4,0,6.8,0,10.2,0c0-0.5,0.1-0.8,0.1-1.2c0-1.7-0.1-3.5,0.1-5.2c0-0.4,0.7-0.8,1-1.2c0.4,0.4,0.9,0.7,1.1,1.2
		c0.2,0.4,0.1,1,0.1,1.5c0,1.7,0,3.3,0,5c1.3,0,2.3,0,3.4,0c0-3.5-0.1-6.9-1.2-10.2c-0.7-1.9-2.1-3.2-4-3.9
		c-1.1-0.4-2.2-0.5-3.2,0.4c-0.9,0.7-1.9,1.2-2.8,2c-1,0.8-1.9,0.9-2.9,0c-0.9-0.7-1.9-1.3-2.7-2c-1.2-1-2.2-0.7-3.5-0.1
		C68.8,58.5,68.7,63.5,69.3,68.5z M54.6,72.7c2.1,0,4.1,0,6.2,0c0-0.9,0-1.6,0-2.3c0-2-0.1-4,0.1-5.9c0-0.4,0.7-0.8,1.1-1.2
		c0.3,0.4,0.8,0.8,1,1.2c0.2,0.4,0,1,0,1.5c0,2.3,0,4.5,0,6.8c1.5,0,2.7,0,4.1,0c-0.1-4.4-0.2-8.6-1.5-12.7c-0.6-2-1.8-3.5-3.5-4.6
		c-0.8-0.6-1.4-0.7-2.1,0.2c-1.3,1.6-2.7,3-4.1,4.5c-0.3,0.3-0.8,0.8-1.2,0.8c-1.3-0.1-1.4,0.7-1.3,1.6
		C53.8,65.8,54.2,69.2,54.6,72.7z M41.3,72.7c2.1,0,3.9,0,5.8,0c0.4-3.5,0.8-7,1.1-10.5c0-0.4-0.4-1-0.7-1.3
		c-0.6-0.5-1.4-0.6-1.9-1.1c-1.4-1.4-2.7-2.9-4.1-4.3c-0.3-0.3-1.2-0.4-1.4-0.2c-1.2,1.2-2.6,2.3-3.3,3.7c-1.9,4.3-1.8,9-1.9,13.7
		c1.4,0,2.7,0,4.1,0c0-0.6,0-1.2,0-1.7c0-2.2-0.1-4.4,0.1-6.5c0-0.4,0.7-0.9,1.1-1.3c0.4,0.4,0.9,0.8,1.1,1.3c0.2,0.4,0,1,0,1.5
		C41.3,68.2,41.3,70.4,41.3,72.7z M57.9,42c0-0.3,0-0.6,0-0.9c0-2.1-0.5-2.4-2.5-1.8c-3.1,1-6.1,0.9-9.2-0.2
		c-1.1-0.4-1.9,0.1-1.9,1.2c0,1.5,0,3.1,0.3,4.6c1.2,5.3,7.1,7.3,10.9,3.8C57.3,46.8,58,44.5,57.9,42z M58.6,37.3
		c1.2-2,1-3.2-0.5-4.6c-0.6-0.6-1.1-1.4-1.7-2c-0.6-0.5-1.2-1.2-1.9-1.3c-3.1-0.5-6,0.3-8.5,2.2c-1.6,1.2-2.6,2.8-2.1,4.7
		c0.8,0.1,1.7-0.1,2.3,0.2c3.1,1.4,6.2,1.5,9.4,0.2C56.7,36.3,57.7,36.1,58.6,37.3z M34.5,43.8C34.5,43.8,34.5,43.8,34.5,43.8
		c0-0.3-0.1-0.6,0-0.9c0-1.1-0.4-1.5-1.6-1.1c-2.3,0.8-4.5,0.8-6.8-0.1c-1-0.4-1.9,0.2-1.9,1.3c0,0.8,0,1.6,0.1,2.4
		c0.3,2.6,2.4,4.7,4.8,4.8c2.4,0.1,4.6-1.6,5.2-4.2C34.5,45.3,34.5,44.5,34.5,43.8z M78.1,43.9c-0.2-2.2-0.3-2.5-1.5-2.1
		c-2.4,0.8-4.7,0.8-7.1-0.1c-1-0.4-1.8,0-1.8,1.2c0,0.8,0,1.6,0,2.4c0.2,2.4,2.1,4.5,4.2,4.8c2.3,0.4,4.4-0.7,5.4-3
		C77.7,46.1,77.9,45,78.1,43.9z M35.6,39.1c0-0.2,0.3-0.8,0.1-1.1c-0.8-1.3-1.7-2.7-2.8-3.8c-1-1.1-5.3-0.2-7.3,1.3
		c-1.7,1.2-2.1,2.4-1.6,3.7c0.8,0,1.6-0.3,2.1-0.1c2.3,1.2,4.5,1,6.9,0.2C33.6,39.1,34.5,39.2,35.6,39.1z M67.3,39.2
		c0.9,0,1.7-0.2,2.3,0c2.1,1.1,4.3,1,6.5,0.3c0.9-0.3,1.8-0.3,3-0.4c0.8-2.2-2.2-2.9-2.6-4.7c-2.4-1.1-4.5-0.4-6.7,0.7
		C67.8,36.1,67,37.5,67.3,39.2z M52.3,72.7c-0.4-3.3-0.8-6.6-1.1-9.8c-0.2,0-0.4,0-0.6,0c-0.4,3.2-0.7,6.4-1.1,9.7
		C50.5,72.7,51.3,72.7,52.3,72.7z M55.5,51.5c-3,1.7-6,1.6-8.9,0c-0.2,1.1,0.7,2,4.3,4.1C54.4,53.7,55.6,52.6,55.5,51.5z M29.2,55
		c0.7-1,2.5-0.9,2.1-2.6c-1.4,0-2.7,0-4.1,0C26.6,54.1,28.5,54,29.2,55z M72.6,55c0.7-0.5,1.4-0.9,2-1.4c0.2-0.2,0.2-0.6,0.2-0.9
		c0-0.1-0.5-0.2-0.7-0.2c-1.1,0-2.2,0-3.4,0C70.1,54.1,72,54,72.6,55z M43.8,53.9c-0.1,0.1-0.1,0.3-0.2,0.4c1.2,1.3,2.4,2.6,3.7,4
		c0.6-0.4,1-0.7,1.5-1.1C47.1,56,45.8,54.4,43.8,53.9z M58.1,54.2c-0.1-0.2-0.2-0.3-0.3-0.5c-1.6,1.1-3.2,2.2-4.9,3.4
		c0.6,0.4,1,0.7,1.5,1.1C55.7,56.8,56.9,55.5,58.1,54.2z M52.1,59.7c-0.5-0.5-0.9-0.9-1.1-0.9c-0.3,0-0.9,0.5-0.9,0.7
		c0,0.4,0.4,0.9,0.7,1C51.1,60.6,51.5,60.1,52.1,59.7z"/>
	<g>
		<polygon class="st1" points="51,57.3 48.8,60 51,62.3 53.4,59.8 		"/>
		<polygon class="st1" points="51.9,62.9 51,63.9 50.2,63 48,72.7 51,72.7 54.1,72.7 		"/>
	</g>
</g>
</svg>
