<?xml version="1.0" encoding="utf-8"?>
<!-- Generator: Adobe Illustrator 27.0.0, SVG Export Plug-In . SVG Version: 6.00 Build 0)  -->
<svg version="1.1" id="Capa_1" xmlns="http://www.w3.org/2000/svg" xmlns:xlink="http://www.w3.org/1999/xlink" x="0px" y="0px"
	 viewBox="0 0 102 102" style="enable-background:new 0 0 102 102;" xml:space="preserve">
<style type="text/css">
	.st0{fill:#4AB384;}
	.st1{fill:#AD75F5;}
</style>
<g>
	<path id="XMLID_22135_" class="st0" d="M84.4,24.1H71.8c-0.3,0-0.6-0.2-0.6-0.5V13c0-0.4,0.4-0.6,0.8-0.5l12.6,4.6
		c0.2,0.1,0.4,0.3,0.4,0.5v5.9C85,23.8,84.7,24.1,84.4,24.1z"/>
	<g id="XMLID_22087_">
		<g id="XMLID_22103_">
			<rect id="XMLID_22105_" x="74.6" y="33.5" class="st0" width="6.3" height="6"/>
			<rect id="XMLID_22104_" x="84.5" y="33.5" class="st0" width="6.3" height="6"/>
		</g>
		<g id="XMLID_22100_">
			<rect id="XMLID_22102_" x="74.6" y="42.9" class="st0" width="6.3" height="6"/>
			<rect id="XMLID_22101_" x="84.5" y="42.9" class="st0" width="6.3" height="6"/>
		</g>
		<g id="XMLID_22097_">
			<rect id="XMLID_22099_" x="74.6" y="52" class="st0" width="6.3" height="6"/>
			<rect id="XMLID_22098_" x="84.5" y="52" class="st0" width="6.3" height="6"/>
		</g>
		<g id="XMLID_22094_">
			<rect id="XMLID_22096_" x="74.6" y="61.3" class="st0" width="6.3" height="6"/>
			<rect id="XMLID_22095_" x="84.5" y="61.3" class="st0" width="6.3" height="6"/>
		</g>
		<g id="XMLID_22091_">
			<rect id="XMLID_22093_" x="74.6" y="69.8" class="st0" width="6.3" height="6"/>
			<rect id="XMLID_22092_" x="84.5" y="69.8" class="st0" width="6.3" height="6"/>
		</g>
		<g id="XMLID_22088_">
			<rect id="XMLID_22090_" x="74.6" y="79.1" class="st0" width="6.3" height="6"/>
			<rect id="XMLID_22089_" x="84.5" y="79.1" class="st0" width="6.3" height="6"/>
		</g>
	</g>
	<path id="XMLID_21942_" class="st1" d="M83.4,15.1c0-0.4-0.3-0.6-0.6-0.7c-4.6-1.8-9.2-3.6-13.8-5.4c-0.5-0.2-1,0.3-1,0.7
		c0,4.2,0,8.4,0,12.6c0,0.4,0.4,0.8,0.8,0.8c4.6,0,9.2,0,13.8,0c0.2,0,0.4-0.1,0.5-0.2c0,0,0,0,0,0c0,0,0,0,0,0
		c0.1-0.1,0.2-0.3,0.2-0.5C83.4,19.9,83.4,17.5,83.4,15.1z M81.8,21.5c-4,0-8.1,0-12.1,0c0-3.6,0-7.1,0-10.7c4,1.6,8.1,3.2,12.1,4.8
		C81.8,17.6,81.8,19.5,81.8,21.5z"/>
	<path id="XMLID_21939_" class="st1" d="M95.6,24.8c-9.1,0-18.1,0-27.2,0c-0.4,0-0.8,0.3-0.8,0.8c0,6.8,0,13.7,0,20.5
		c0,13.1,0,41.1,0,49.3c0,0.1,0,0.3,0,0.4c0,0.4,0.4,0.8,0.8,0.8c9.1,0,18.1,0,27.2,0c0.2,0,0.4-0.1,0.5-0.2c0,0,0,0,0,0
		c0,0,0,0,0,0c0.1-0.1,0.2-0.3,0.2-0.5c0-6.8,0-32,0-45.1c0-8.2,0-16.4,0-24.7c0-0.1,0-0.3,0-0.4C96.4,25.2,96,24.8,95.6,24.8z
		 M69.2,95c0-6.6,0-31.3,0-44.4c0-8.1,0-16.2,0-24.3c8.5,0,17.1,0,25.6,0c0,6.6,0,13.2,0,19.7c0,13.1,0,40.8,0,48.9
		C86.2,95,77.7,95,69.2,95z"/>
	<g id="XMLID_21762_">
		<path id="XMLID_21796_" class="st1" d="M79.4,31.9c-2.1,0-4.2,0-6.3,0c-0.4,0-0.8,0.3-0.8,0.8c0,2,0,4,0,6c0,0.4,0.4,0.8,0.8,0.8
			c2.1,0,4.2,0,6.3,0c0.2,0,0.4-0.1,0.5-0.2c0,0,0,0,0,0c0,0,0,0,0,0c0.1-0.1,0.2-0.3,0.2-0.5c0-2,0-4,0-6
			C80.2,32.2,79.9,31.9,79.4,31.9z M78.6,37.8c-1.6,0-3.1,0-4.7,0c0-1.5,0-3,0-4.4c1.6,0,3.1,0,4.7,0C78.6,34.9,78.6,36.4,78.6,37.8
			z"/>
		<path id="XMLID_21793_" class="st1" d="M89.3,31.9c-2.1,0-4.2,0-6.3,0c-0.4,0-0.8,0.3-0.8,0.8c0,2,0,4,0,6c0,0.4,0.4,0.8,0.8,0.8
			c2.1,0,4.2,0,6.3,0c0.2,0,0.4-0.1,0.5-0.2c0,0,0,0,0,0c0,0,0,0,0,0c0.1-0.1,0.2-0.3,0.2-0.5c0-2,0-4,0-6
			C90.1,32.2,89.7,31.9,89.3,31.9z M88.5,37.8c-1.6,0-3.1,0-4.7,0c0-1.5,0-3,0-4.4c1.6,0,3.1,0,4.7,0C88.5,34.9,88.5,36.4,88.5,37.8
			z"/>
		<path id="XMLID_21790_" class="st1" d="M79.4,41.3c-2.1,0-4.2,0-6.3,0c-0.4,0-0.8,0.3-0.8,0.8c0,2,0,4,0,6c0,0.4,0.4,0.8,0.8,0.8
			c2.1,0,4.2,0,6.3,0c0.2,0,0.4-0.1,0.5-0.2c0,0,0,0,0,0c0,0,0,0,0,0c0.1-0.1,0.2-0.3,0.2-0.5c0-2,0-4,0-6
			C80.2,41.6,79.9,41.3,79.4,41.3z M78.6,47.2c-1.6,0-3.1,0-4.7,0c0-1.5,0-3,0-4.4c1.6,0,3.1,0,4.7,0C78.6,44.3,78.6,45.7,78.6,47.2
			z"/>
		<path id="XMLID_21787_" class="st1" d="M89.3,41.3c-2.1,0-4.2,0-6.3,0c-0.4,0-0.8,0.3-0.8,0.8c0,2,0,4,0,6c0,0.4,0.4,0.8,0.8,0.8
			c2.1,0,4.2,0,6.3,0c0.2,0,0.4-0.1,0.5-0.2c0,0,0,0,0,0c0,0,0,0,0,0c0.1-0.1,0.2-0.3,0.2-0.5c0-2,0-4,0-6
			C90.1,41.6,89.7,41.3,89.3,41.3z M88.5,47.2c-1.6,0-3.1,0-4.7,0c0-1.5,0-3,0-4.4c1.6,0,3.1,0,4.7,0C88.5,44.3,88.5,45.7,88.5,47.2
			z"/>
		<path id="XMLID_21784_" class="st1" d="M79.4,50.4c-2.1,0-4.2,0-6.3,0c-0.4,0-0.8,0.3-0.8,0.8c0,2,0,4,0,6c0,0.4,0.4,0.8,0.8,0.8
			c2.1,0,4.2,0,6.3,0c0.2,0,0.4-0.1,0.5-0.2c0,0,0,0,0,0c0,0,0,0,0,0c0.1-0.1,0.2-0.3,0.2-0.5c0-2,0-4,0-6
			C80.2,50.7,79.9,50.4,79.4,50.4z M78.6,56.3c-1.6,0-3.1,0-4.7,0c0-1.5,0-3,0-4.4c1.6,0,3.1,0,4.7,0C78.6,53.4,78.6,54.8,78.6,56.3
			z"/>
		<path id="XMLID_21781_" class="st1" d="M89.3,50.4c-2.1,0-4.2,0-6.3,0c-0.4,0-0.8,0.3-0.8,0.8c0,2,0,4,0,6c0,0.4,0.4,0.8,0.8,0.8
			c2.1,0,4.2,0,6.3,0c0.2,0,0.4-0.1,0.5-0.2c0,0,0,0,0,0c0,0,0,0,0,0c0.1-0.1,0.2-0.3,0.2-0.5c0-2,0-4,0-6
			C90.1,50.7,89.7,50.4,89.3,50.4z M88.5,56.3c-1.6,0-3.1,0-4.7,0c0-1.5,0-3,0-4.4c1.6,0,3.1,0,4.7,0C88.5,53.4,88.5,54.8,88.5,56.3
			z"/>
		<path id="XMLID_21778_" class="st1" d="M79.4,59.7c-2.1,0-4.2,0-6.3,0c-0.4,0-0.8,0.3-0.8,0.8c0,2,0,4,0,6c0,0.4,0.4,0.8,0.8,0.8
			c2.1,0,4.2,0,6.3,0c0.2,0,0.4-0.1,0.5-0.2c0,0,0,0,0,0c0,0,0,0,0,0c0.1-0.1,0.2-0.3,0.2-0.5c0-2,0-4,0-6
			C80.2,60.1,79.9,59.7,79.4,59.7z M78.6,65.7c-1.6,0-3.1,0-4.7,0c0-1.5,0-3,0-4.4c1.6,0,3.1,0,4.7,0C78.6,62.7,78.6,64.2,78.6,65.7
			z"/>
		<path id="XMLID_21775_" class="st1" d="M89.3,59.7c-2.1,0-4.2,0-6.3,0c-0.4,0-0.8,0.3-0.8,0.8c0,2,0,4,0,6c0,0.4,0.4,0.8,0.8,0.8
			c2.1,0,4.2,0,6.3,0c0.2,0,0.4-0.1,0.5-0.2c0,0,0,0,0,0c0,0,0,0,0,0c0.1-0.1,0.2-0.3,0.2-0.5c0-2,0-4,0-6
			C90.1,60.1,89.7,59.7,89.3,59.7z M88.5,65.7c-1.6,0-3.1,0-4.7,0c0-1.5,0-3,0-4.4c1.6,0,3.1,0,4.7,0C88.5,62.7,88.5,64.2,88.5,65.7
			z"/>
		<path id="XMLID_21772_" class="st1" d="M79.4,68.2c-2.1,0-4.2,0-6.3,0c-0.4,0-0.8,0.3-0.8,0.8c0,2,0,4,0,6c0,0.4,0.4,0.8,0.8,0.8
			c2.1,0,4.2,0,6.3,0c0.2,0,0.4-0.1,0.5-0.2c0,0,0,0,0,0c0,0,0,0,0,0c0.1-0.1,0.2-0.3,0.2-0.5c0-2,0-4,0-6
			C80.2,68.5,79.9,68.2,79.4,68.2z M78.6,74.1c-1.6,0-3.1,0-4.7,0c0-1.5,0-3,0-4.4c1.6,0,3.1,0,4.7,0C78.6,71.2,78.6,72.6,78.6,74.1
			z"/>
		<path id="XMLID_21769_" class="st1" d="M89.3,68.2c-2.1,0-4.2,0-6.3,0c-0.4,0-0.8,0.3-0.8,0.8c0,2,0,4,0,6c0,0.4,0.4,0.8,0.8,0.8
			c2.1,0,4.2,0,6.3,0c0.2,0,0.4-0.1,0.5-0.2c0,0,0,0,0,0c0,0,0,0,0,0c0.1-0.1,0.2-0.3,0.2-0.5c0-2,0-4,0-6
			C90.1,68.5,89.7,68.2,89.3,68.2z M88.5,74.1c-1.6,0-3.1,0-4.7,0c0-1.5,0-3,0-4.4c1.6,0,3.1,0,4.7,0C88.5,71.2,88.5,72.6,88.5,74.1
			z"/>
		<path id="XMLID_21766_" class="st1" d="M79.4,77.5c-2.1,0-4.2,0-6.3,0c-0.4,0-0.8,0.3-0.8,0.8c0,2,0,4,0,6c0,0.4,0.4,0.8,0.8,0.8
			c2.1,0,4.2,0,6.3,0c0.2,0,0.4-0.1,0.5-0.2c0,0,0,0,0,0c0,0,0,0,0,0c0.1-0.1,0.2-0.3,0.2-0.5c0-2,0-4,0-6
			C80.2,77.9,79.9,77.5,79.4,77.5z M78.6,83.5c-1.6,0-3.1,0-4.7,0c0-1.5,0-3,0-4.4c1.6,0,3.1,0,4.7,0C78.6,80.5,78.6,82,78.6,83.5z"
			/>
		<path id="XMLID_21763_" class="st1" d="M89.3,77.5c-2.1,0-4.2,0-6.3,0c-0.4,0-0.8,0.3-0.8,0.8c0,2,0,4,0,6c0,0.4,0.4,0.8,0.8,0.8
			c2.1,0,4.2,0,6.3,0c0.2,0,0.4-0.1,0.5-0.2c0,0,0,0,0,0c0,0,0,0,0,0c0.1-0.1,0.2-0.3,0.2-0.5c0-2,0-4,0-6
			C90.1,77.9,89.7,77.5,89.3,77.5z M88.5,83.5c-1.6,0-3.1,0-4.7,0c0-1.5,0-3,0-4.4c1.6,0,3.1,0,4.7,0C88.5,80.5,88.5,82,88.5,83.5z"
			/>
	</g>
	<g>
		<rect id="XMLID_132_" x="27.9" y="82.7" class="st0" width="4.9" height="7.1"/>
		<path class="st1" d="M53.7,77.6c-0.4,0-0.6,0.3-0.6,0.6v16.7h-4.5V84.5c0-0.4-0.3-0.6-0.6-0.6h-6.6c-0.4,0-0.6,0.3-0.6,0.6v10.4
			h-4.5V78.3c0-0.4-0.3-0.6-0.6-0.6s-0.6,0.3-0.6,0.6v17.3c0,0.4,0.3,0.6,0.6,0.6h18.3c0.4,0,0.6-0.3,0.6-0.6V78.3
			C54.4,77.9,54.1,77.6,53.7,77.6z M47.3,94.9h-5.3v-9.8h5.3V94.9z"/>
		<g id="XMLID_1_">
			<path id="XMLID_2_" class="st1" d="M31.9,89.6H27c-0.2,0-0.4-0.2-0.4-0.4v-7.3c0-0.2,0.2-0.4,0.4-0.4h4.9c0.2,0,0.4,0.2,0.4,0.4
				v7.3C32.3,89.4,32.1,89.6,31.9,89.6z M27.4,88.7h4v-6.4h-4V88.7z"/>
		</g>
		<g>
			<path class="st1" d="M68.3,77.8l-3.8-12.4c-0.1-0.3-0.3-0.5-0.6-0.5H25.5c-0.3,0-0.5,0.2-0.6,0.5l-3.8,12.4
				c-0.1,0.2,0,0.4,0.1,0.6c0.1,0.2,0.3,0.3,0.5,0.3h1v16.9c0,0.4,0.3,0.6,0.6,0.6h42.5c0.4,0,0.6-0.3,0.6-0.6l0.1-16.9h1.1
				c0.2,0,0.4-0.1,0.5-0.3C68.3,78.3,68.3,78,68.3,77.8z M55.4,77.4c-0.4,0-0.6,0.3-0.6,0.6c0,0.4,0.3,0.6,0.6,0.6h9.8l-0.1,16.3H24
				V78.7h9.5c0.4,0,0.6-0.3,0.6-0.6c0-0.4-0.3-0.6-0.6-0.6H22.6L26,66.2h37.5l3.4,11.1H55.4z"/>
		</g>
		<path class="st1" d="M21.8,84.8c-0.4,0-0.6,0.3-0.6,0.6V95h-1.4v-7.6c0-0.4-0.3-0.6-0.6-0.6H8.4c-0.4,0-0.6,0.3-0.6,0.6V95H6.4
			v-9.6c0-0.4-0.3-0.6-0.6-0.6s-0.6,0.3-0.6,0.6v10.2c0,0.4,0.3,0.6,0.6,0.6h16.1c0.4,0,0.6-0.3,0.6-0.6V85.4
			C22.5,85.1,22.2,84.8,21.8,84.8z M9,90.4h9.5V95H9V90.4z M9,89.5v-1.2h9.5v1.2H9z"/>
		<g id="XMLID_141_">
			<path id="XMLID_142_" class="st1" d="M44.7,81.3c-1.7,0-3.1-1.4-3.1-3.1c0-1.7,1.4-3.1,3.1-3.1c1.7,0,3.1,1.4,3.1,3.1
				C47.8,79.9,46.4,81.3,44.7,81.3z M44.7,75.9c-1.3,0-2.3,1-2.3,2.3c0,1.3,1,2.3,2.3,2.3c1.3,0,2.3-1,2.3-2.3
				C47,77,45.9,75.9,44.7,75.9z"/>
		</g>
		<g id="XMLID_139_">
			<path id="XMLID_140_" class="st1" d="M44.7,81.3c-0.2,0-0.4-0.2-0.4-0.4v-5.4c0-0.2,0.2-0.4,0.4-0.4c0.2,0,0.4,0.2,0.4,0.4v5.4
				C45.1,81.2,44.9,81.3,44.7,81.3z"/>
		</g>
		<g id="XMLID_137_">
			<path id="XMLID_138_" class="st1" d="M47.4,78.6H42c-0.2,0-0.4-0.2-0.4-0.4c0-0.2,0.2-0.4,0.4-0.4h5.4c0.2,0,0.4,0.2,0.4,0.4
				C47.8,78.4,47.6,78.6,47.4,78.6z"/>
		</g>
	</g>
	<g>
		<g id="XMLID_22106_">
			<g id="XMLID_22107_">
				<g id="XMLID_22108_">
					<path id="XMLID_22109_" class="st0" d="M64.2,75.6c0,0,0-0.2-0.1-0.1C64,75.4,64,75.6,64,75.6c-1.6,1.8-10.4,12.6,0,14.4l0,0
						c0,0,0.1,0,0.1,0c0,0,0.1,0,0.1,0v0C74.5,87.8,65.8,77.4,64.2,75.6z"/>
				</g>
			</g>
		</g>
		<g id="XMLID_21961_">
			<path id="XMLID_21963_" class="st1" d="M67.3,81.6c-0.8-2.2-2.2-4.4-3.8-6.1c-0.3-0.3-0.7,0.1-0.4,0.4c0.8,0.9,1.5,1.9,2.2,2.9
				c0,0,0,0,0,0c-0.8,0.8-1.6,1.6-2.3,2.3c0-1.8,0-3.6,0-5.4c0-0.4-0.6-0.4-0.6,0c0,1.8,0,3.6,0,5.4c-0.8-0.8-1.6-1.6-2.3-2.3
				c0,0,0,0,0,0c0.6-1,1.4-2,2.2-2.9c0.2-0.3-0.2-0.7-0.4-0.4c-1.6,1.7-2.9,3.8-3.8,6c-0.6,1.6-0.9,3.3-0.3,5c0.6,2,2.4,3.2,4.2,4
				c0.3,0.1,0.5-0.4,0.2-0.6c-1.8-0.7-3.4-1.9-3.9-3.9c-0.2-0.9-0.2-1.8-0.1-2.6c1.4,1.4,2.9,2.9,4.3,4.3c0,0.8,0,1.6,0,2.5
				c0,0.4,0.6,0.4,0.6,0c0-0.8,0-1.6,0-2.5c1.4-1.4,2.9-2.9,4.3-4.3c0.1,0.8,0.2,1.7,0,2.5c-0.5,2-2.2,3.2-3.9,4
				c-0.3,0.1-0.2,0.7,0.2,0.6c1.8-0.8,3.5-1.9,4.2-3.9C68.2,85,67.9,83.2,67.3,81.6z M58.3,82.8C58.3,82.8,58.3,82.8,58.3,82.8
				c0.1-0.5,0.2-1,0.4-1.4c0.3-0.7,0.6-1.4,1-2.1c0.9,0.9,1.8,1.8,2.7,2.7c0,1.6,0,3.3,0,4.9C61,85.5,59.6,84.2,58.3,82.8z
				 M67.1,82.8c-1.4,1.4-2.7,2.7-4.1,4.1c0-1.6,0-3.3,0-4.9c0.9-0.9,1.8-1.8,2.7-2.7c0.4,0.6,0.7,1.3,1,2
				C66.8,81.8,67,82.3,67.1,82.8C67.1,82.8,67.1,82.8,67.1,82.8z"/>
			<path id="XMLID_21962_" class="st1" d="M62.3,91c0,1.4,0.1,2.8,0.1,4.2c0,0.4,0.6,0.4,0.6,0c0-1.4-0.1-2.8-0.1-4.2
				C62.9,90.7,62.3,90.7,62.3,91z"/>
		</g>
	</g>
	<path id="XMLID_27011_" class="st1" d="M55.7,79.7c-0.2,0-0.4-0.1-0.6-0.2l-10.5-6.9l-10.5,6.9c-0.2,0.2-0.5,0.2-0.8,0.2
		c-0.3-0.1-0.5-0.2-0.7-0.5c-0.3-0.5-0.2-1.2,0.3-1.5L44,70.3c0.2-0.1,0.4-0.2,0.6-0.2c0.2,0,0.4,0.1,0.6,0.2l11.1,7.3
		c0.5,0.3,0.7,1,0.3,1.5c-0.2,0.2-0.4,0.4-0.7,0.5C55.9,79.7,55.8,79.7,55.7,79.7z"/>
	<path id="XMLID_26963_" class="st1" d="M4.8,86.2c-0.1,0-0.1,0-0.2,0C4.4,86.2,4.1,86,4,85.8c-0.3-0.4-0.2-1,0.3-1.3l8.8-5.8
		c0.2-0.1,0.4-0.2,0.6-0.2c0.2,0,0.4,0,0.6,0.2l8.8,5.8v0c0.4,0.3,0.6,0.9,0.3,1.3c-0.1,0.2-0.4,0.4-0.6,0.4c-0.3,0.1-0.5,0-0.7-0.1
		l-8.3-5.5l-8.3,5.5C5.2,86.2,5,86.2,4.8,86.2z"/>
	<g id="XMLID_26956_">
		<path id="XMLID_26957_" class="st1" d="M13.7,85.9c-0.9,0-1.7-0.8-1.7-1.7c0-0.9,0.8-1.7,1.7-1.7c0.9,0,1.7,0.8,1.7,1.7
			C15.4,85.1,14.6,85.9,13.7,85.9z M13.7,83.3c-0.4,0-0.8,0.4-0.8,0.8c0,0.4,0.4,0.8,0.8,0.8c0.4,0,0.8-0.4,0.8-0.8
			C14.5,83.7,14.1,83.3,13.7,83.3z"/>
	</g>
</g>
</svg>
