<?xml version="1.0" encoding="utf-8"?>
<!-- Generator: Adobe Illustrator 27.0.0, SVG Export Plug-In . SVG Version: 6.00 Build 0)  -->
<svg version="1.1" id="Capa_1" xmlns="http://www.w3.org/2000/svg" xmlns:xlink="http://www.w3.org/1999/xlink" x="0px" y="0px"
	 viewBox="0 0 102 102" style="enable-background:new 0 0 102 102;" xml:space="preserve">
<style type="text/css">
	.st0{fill:#AD75F5;}
	.st1{fill:#26D384;}
</style>
<g>
	<path class="st0" d="M35.1,21h-9.6c0,0.1,0,0.3-0.1,0.4c0.1,0.1,0.1,0.2,0.1,0.4c0,0,0,0.1,0,0.1h9.5C35.1,21.6,35.1,21.3,35.1,21z
		"/>
	<path class="st0" d="M58.1,21.7c0-0.1,0.1-0.2,0.1-0.3c-0.1-0.1-0.1-0.3-0.1-0.4h-9.5c0,0.4-0.2,0.7-0.6,0.9h10.1
		C58.1,21.7,58.1,21.7,58.1,21.7z"/>
	<path class="st0" d="M47.2,21.8c-0.1,0-0.2-0.1-0.3-0.2l-0.2,0.2H47.2z"/>
	<path class="st0" d="M59,21.9c-0.4,0-0.7-0.2-0.9-0.5c0,0.1-0.1,0.2-0.1,0.3c0,0,0,0.1,0,0.2c-0.2,0.9-1.4,4.9-5.7,8.5h1.8
		c0.3,0,0.6,0.1,0.9,0.2c4.1-4.1,5-8.3,5-8.5c0-0.2,0-0.4-0.1-0.6C59.7,21.7,59.4,21.9,59,21.9z"/>
	<path class="st0" d="M30,30.3h1c-4.2-3.5-5.2-7.7-5.3-8.5c0-0.1,0-0.1,0-0.1c0-0.1-0.1-0.2-0.1-0.4c-0.1,0.3-0.5,0.6-0.9,0.6
		c-0.3,0-0.7-0.2-0.8-0.5c-0.1,0.2-0.1,0.3-0.1,0.5c0,0.3,0.8,4.8,4.9,8.8C29,30.5,29.5,30.3,30,30.3z"/>
	<path class="st0" d="M24.6,21.9c0.4,0,0.7-0.2,0.9-0.6c0-0.1,0.1-0.2,0.1-0.4c0-2.6,2.1-4.8,4.8-4.8c2.6,0,4.8,2.1,4.8,4.8
		c0-1.3,0.4-2.5,1-3.5c-1.2-1.9-3.3-3.2-5.7-3.2c-3.7,0-6.7,3-6.7,6.7c0,0.2,0.1,0.4,0.1,0.5C24,21.8,24.3,21.9,24.6,21.9z"/>
	<path class="st0" d="M35.1,21c0,0.3,0,0.6,0.1,0.9c0.4,3.3,3.2,5.8,6.6,5.8c0.5,0,1-0.4,1-1c0-0.3-0.1-0.5-0.3-0.7
		c-0.2-0.2-0.4-0.3-0.7-0.3c-2.6,0-4.8-2.1-4.8-4.8c0-2.6,2.1-4.8,4.8-4.8c2.6,0,4.8,2.1,4.8,4.8c0-1.3,0.4-2.5,1-3.5
		c-1.2-1.9-3.3-3.2-5.7-3.2c-2.4,0-4.6,1.3-5.7,3.2C35.5,18.5,35.1,19.7,35.1,21z"/>
	<path class="st0" d="M46.6,21c0,0.3,0.1,0.5,0.3,0.7c0.1,0.1,0.2,0.1,0.3,0.2c0.1,0.1,0.3,0.1,0.4,0.1c0.1,0,0.3,0,0.4-0.1
		c0.3-0.2,0.6-0.5,0.6-0.9c0-2.6,2.1-4.8,4.8-4.8c2.6,0,4.8,2.1,4.8,4.8c0,0.2,0,0.3,0.1,0.4c0.2,0.3,0.5,0.5,0.9,0.5
		c0.4,0,0.7-0.2,0.9-0.5C60,21.3,60,21.1,60,21c0-3.7-3-6.7-6.7-6.7c-2.4,0-4.6,1.3-5.7,3.2C47,18.5,46.6,19.7,46.6,21z"/>
	<path class="st0" d="M50.4,34.6c10,3.5,17.1,13.1,17.1,24.2c0,1.9-0.2,3.7-0.6,5.4c0.1,0,0.3,0.1,0.4,0.1c0,0,0.5,0.3,1.3,1
		c0.5-2.1,0.8-4.3,0.8-6.6c0-10.5-5.9-19.7-14.6-24.4c-0.2,0.1-0.5,0.1-0.8,0.1H50.4z"/>
	<path class="st0" d="M15.9,64.4c0.2-0.1,0.5-0.2,0.7-0.1c-0.4-1.8-0.6-3.6-0.6-5.4c0-11.2,7.2-20.7,17.1-24.2H30
		c-0.4,0-0.7-0.1-1-0.2C20.2,39,14.2,48.2,14.2,58.9c0,2.2,0.3,4.3,0.7,6.3C15.5,64.7,15.9,64.4,15.9,64.4z"/>
	<path class="st0" d="M38.2,84.2c-4.3-0.8-7.9-2.6-7.9-2.6c-0.2-0.1-0.3-0.1-0.5-0.1c-3.2,0.3-5.9,0.5-8,0.7
		c-8.3,0.8-8.9,0.7-9.4-1.9C10.1,70.5,16.7,66.2,17,66c0.1-0.1,0.2-0.1,0.2-0.2c0.3-0.3,0.3-0.8,0.1-1.1c-0.1-0.2-0.3-0.4-0.6-0.4
		c-0.2-0.1-0.5,0-0.7,0.1c0,0-0.4,0.3-1,0.8C12.8,67,8.5,72,10.4,80.7c1,4.4,3.4,4.2,11.5,3.4c2-0.2,4.4-0.4,7.3-0.7
		c0.2,0,0.3,0,0.5,0c1,0.5,4.5,2.1,8.5,2.8V84.2z"/>
	<path class="st0" d="M27,40.8c-1,1.1-1.5,2.3-1.5,3.6c0,0.5,0.4,1,1,1c0.5,0,1-0.4,1-1c0-0.8,0.3-1.6,1-2.4c0.3-0.4,0.3-1-0.1-1.4
		C28,40.3,27.4,40.4,27,40.8z"/>
	<path class="st0" d="M56.2,43.9c0.1,0.5,0.5,0.8,0.9,0.8c0.1,0,0.1,0,0.2,0c0.5-0.1,0.9-0.6,0.8-1.1c-0.2-1.2-0.9-2.3-1.9-3.3
		c-0.4-0.4-1-0.4-1.4,0c-0.4,0.4-0.4,1,0,1.4C55.6,42.3,56,43.1,56.2,43.9z"/>
	<path class="st0" d="M43.1,37.8c1.1,0,2.2,0.1,3.2,0.3c0.1,0,0.1,0,0.1,0c0.5,0,0.9-0.3,1-0.8c0.1-0.5-0.3-1-0.8-1.1
		c-1.1-0.2-2.2-0.3-3.4-0.3c-0.5,0-1,0.4-1,0.9C42.2,37.3,42.6,37.7,43.1,37.8z"/>
	<path class="st0" d="M48.8,37.6c-0.2,0.5,0.1,1,0.7,1.2c1.1,0.3,2,0.7,2.9,1.1c0.1,0.1,0.3,0.1,0.4,0.1c0.4,0,0.7-0.2,0.9-0.5
		c0.2-0.5,0-1.1-0.4-1.3c-1-0.5-2.1-0.9-3.2-1.3C49.4,36.8,48.9,37.1,48.8,37.6z"/>
	<path class="st0" d="M33.1,37.1c-1.2,0.4-2.3,0.9-3.2,1.4c-0.5,0.3-0.6,0.9-0.4,1.3c0.2,0.3,0.5,0.5,0.8,0.5c0.2,0,0.3,0,0.5-0.1
		c0.8-0.5,1.8-0.9,2.9-1.2c0.5-0.2,0.8-0.7,0.6-1.2C34.1,37.2,33.6,37,33.1,37.1z"/>
	<path class="st0" d="M39.8,35.9c-1.2,0.1-2.3,0.2-3.4,0.4c-0.5,0.1-0.9,0.6-0.8,1.1c0.1,0.5,0.5,0.8,0.9,0.8c0.1,0,0.1,0,0.2,0
		c1-0.2,2.1-0.3,3.2-0.4c0.5,0,0.9-0.5,0.9-1C40.8,36.2,40.3,35.8,39.8,35.9z"/>
	<path class="st0" d="M33.2,34.6h17.2h3.7c0.3,0,0.5-0.1,0.8-0.1c0.8-0.3,1.4-1.1,1.4-2c0-0.9-0.5-1.6-1.2-1.9
		c-0.3-0.1-0.6-0.2-0.9-0.2h-1.8H31h-1c-0.5,0-1,0.2-1.3,0.5c-0.5,0.4-0.8,1-0.8,1.7c0,0.8,0.5,1.5,1.2,1.9c0.3,0.1,0.6,0.2,1,0.2
		H33.2z M29.8,32.5c0-0.1,0.1-0.2,0.2-0.2h24.1c0.1,0,0.2,0.1,0.2,0.2c0,0.1-0.1,0.2-0.2,0.2H30C29.9,32.7,29.8,32.6,29.8,32.5z"/>
	<g>
		<path class="st1" d="M35.8,57.3c-2.3-0.6-4.3-1-4.3-2.9c0-1.7,1.5-2.6,4-2.6c1.5,0,3.1,0.5,4.3,1.3c0.1,0.1,0.2,0.1,0.3,0
			c0.1,0,0.2-0.1,0.2-0.2l0.6-1.4c0.1-0.1,0-0.3-0.1-0.4c-1.4-1-3.3-1.5-5.3-1.5c-4.7,0-6.4,2.5-6.4,4.9c0,3.5,3.1,4.3,5.9,5
			c2.3,0.6,4.2,1,4.2,2.9c0,1.6-1.5,2.6-4.1,2.6c-2,0-4-0.7-5.2-1.9c-0.1-0.1-0.2-0.1-0.3-0.1c-0.1,0-0.2,0.1-0.3,0.2l-0.7,1.3
			c-0.1,0.1,0,0.3,0.1,0.4c1.3,1.4,3.8,2.2,6.4,2.2c4.8,0,6.5-2.6,6.5-4.8C41.7,58.7,38.5,58,35.8,57.3z"/>
		<path class="st1" d="M51.4,46.5c-0.1-0.1-0.2-0.1-0.3-0.1h-1.5c-0.1,0-0.3,0.1-0.3,0.2l-7.8,22.2c0,0.1,0,0.2,0,0.3
			c0.1,0.1,0.2,0.1,0.3,0.1h1.5c0.1,0,0.3-0.1,0.3-0.2l7.8-22.2C51.5,46.8,51.5,46.6,51.4,46.5z"/>
		<path class="st1" d="M50.5,63.8c-0.9,0-1.6,0.7-1.6,1.6c0,0.9,0.7,1.6,1.6,1.6c0.9,0,1.6-0.7,1.6-1.6
			C52.1,64.5,51.4,63.8,50.5,63.8z"/>
	</g>
	<g>
		<path class="st0" d="M90.2,79.4v1.6c0,1.1-4.7,3.4-13.2,3.4c-6.8,0-11.1-1.4-12.6-2.6v0.6c0,0.5-0.2,1-0.5,1.4
			c2.8,1.6,8,2.5,13.1,2.5c7.5,0,15.1-1.8,15.1-5.3v-4.3C92.1,77.8,91.4,78.7,90.2,79.4z"/>
		<path class="st0" d="M63.7,76.5v-1.4c-1.2-0.7-1.9-1.6-1.9-2.7v2.7C62.6,75.5,63.3,76,63.7,76.5z"/>
		<path class="st0" d="M90.2,75.1v1.6c0,1.1-4.7,3.4-13.2,3.4c-6.9,0-11.3-1.5-12.7-2.6c0.1,0.2,0.1,0.4,0.1,0.6v1.6
			c2.9,1.5,7.8,2.2,12.6,2.2c5.2,0,10.5-0.9,13.2-2.6c1.2-0.7,1.9-1.6,1.9-2.7v-4.3C92.1,73.4,91.4,74.3,90.2,75.1z"/>
		<path class="st0" d="M90.2,70.7v1.6c0,1.1-4.7,3.4-13.2,3.4c-8.6,0-13.2-2.2-13.2-3.4v-1.6c-1.2-0.7-1.9-1.6-1.9-2.7v4.3v0
			c0,1.1,0.7,2,1.9,2.7c2.7,1.7,8,2.6,13.2,2.6c5.2,0,10.5-0.9,13.2-2.6c1.2-0.7,1.9-1.6,1.9-2.7v0V68C92.1,69.1,91.4,70,90.2,70.7z
			"/>
		<path class="st0" d="M72.8,62.9c-6,0.5-11,2.3-11,5.1c0,1.1,0.7,2,1.9,2.7c2.7,1.7,8,2.6,13.2,2.6c5.2,0,10.5-0.9,13.2-2.6
			c1.2-0.7,1.9-1.6,1.9-2.7c0-3.5-7.6-5.3-15.1-5.3c-0.7,0-1.5,0-2.2,0.1C74.1,62.8,73.5,62.9,72.8,62.9z M90.2,68
			c0,1.1-4.7,3.4-13.2,3.4c-8.6,0-13.2-2.2-13.2-3.4c0-1.1,4.7-3.4,13.2-3.4C85.5,64.7,90.2,66.9,90.2,68z"/>
		<path class="st0" d="M64.3,82.4v-0.6v-2.1v-1.6c0,1.1-0.7,2-1.9,2.7v1.6c0,1.1-4.7,3.4-13.2,3.4s-13.2-2.2-13.2-3.4v-1.6
			c-1.2-0.7-1.9-1.6-1.9-2.7v2.1v2.2c0,0,0,0,0,0c0.1,3.4,7.6,5.2,15.1,5.2c6.4,0,12.9-1.3,14.7-3.9C64.1,83.4,64.3,82.9,64.3,82.4z
			"/>
		<path class="st0" d="M63.7,76.5c-0.4-0.5-1.1-1-1.9-1.4c-2.9-1.5-7.8-2.2-12.7-2.2c-7.5,0-15.1,1.8-15.1,5.3c0,1.1,0.7,2,1.9,2.7
			c2.7,1.7,8,2.6,13.2,2.6c5.2,0,10.5-0.9,13.2-2.6c1.2-0.7,1.9-1.6,1.9-2.7c0-0.2,0-0.4-0.1-0.6C64.1,77.1,63.9,76.8,63.7,76.5z
			 M35.9,78.1c0-1.1,4.7-3.4,13.2-3.4s13.2,2.2,13.2,3.4c0,1.1-4.7,3.4-13.2,3.4S35.9,79.2,35.9,78.1z"/>
	</g>
</g>
</svg>
