<?xml version="1.0" encoding="utf-8"?>
<!-- Generator: Adobe Illustrator 25.4.8, SVG Export Plug-In . SVG Version: 6.00 Build 0)  -->
<svg version="1.1" id="Capa_1" xmlns="http://www.w3.org/2000/svg" xmlns:xlink="http://www.w3.org/1999/xlink" x="0px" y="0px"
	 viewBox="0 0 102 102" style="enable-background:new 0 0 102 102;" xml:space="preserve">
<style type="text/css">
	.st0{fill:#66539F;}
</style>
<g>
	<path class="st0" d="M64.3,79.6c-0.1,0-0.2,0-0.2,0c-2.9-0.2-4.8-3.5-5-3.8l-10.5-21c-10.1-5.3-21.1-10.7-21.3-10.7
		c0,0-0.1-0.1-0.1-0.1c-0.3-0.2-3.1-2.1-3-4.8c0.1-1.8,1.3-3.3,3.6-4.7c0.1-0.1,0.2-0.1,0.4-0.1l40.1-8.8c1.5-0.5,4.9,0.1,7.3,2
		c1.9,1.5,2.7,3.6,2.4,5.9c-0.7,5.3-5.8,27.9-7.4,34.7l-1.6,8.2c0,0.2-0.1,0.3-0.2,0.5C67.4,78.7,65.9,79.6,64.3,79.6z M28.5,41.8
		c1.1,0.5,11.8,5.8,21.6,10.9c0.2,0.1,0.4,0.3,0.6,0.6l10.7,21.3c0.3,0.6,1.6,2.4,2.9,2.5c0.7,0,1.4-0.5,2.2-1.5l1.6-7.9
		c1.5-6.8,6.6-29.3,7.3-34.5c0.2-1.5-0.3-2.7-1.4-3.6c-1.8-1.5-4.4-1.7-4.9-1.5c0,0-0.1,0-0.1,0l-40,8.8c-1,0.6-2.1,1.4-2.1,2.4
		C26.7,40.3,27.9,41.4,28.5,41.8z M68.5,26.8L68.5,26.8L68.5,26.8z"/>
</g>
</svg>
