<?xml version="1.0" encoding="utf-8"?>
<!-- Generator: Adobe Illustrator 25.4.8, SVG Export Plug-In . SVG Version: 6.00 Build 0)  -->
<svg version="1.1" id="Capa_1" xmlns="http://www.w3.org/2000/svg" xmlns:xlink="http://www.w3.org/1999/xlink" x="0px" y="0px"
	 viewBox="0 0 102 102" style="enable-background:new 0 0 102 102;" xml:space="preserve">
<style type="text/css">
	.st0{fill:#8D75B4;}
	.st1{fill:#48B488;}
</style>
<g>
	<path class="st0" d="M51.8,37.7H32.1c-0.7,0-1.3,0.4-1.3,0.8c-0.1,0.5,0.5,1,1.3,1l19.7,0c0.7,0,1.3-0.3,1.3-0.8
		C53.2,38.2,52.6,37.7,51.8,37.7z"/>
	<path class="st0" d="M51.8,48.3l-19.7,0c-0.7,0-1.3,0.4-1.3,0.8c-0.1,0.5,0.5,1,1.3,1h19.7c0.7,0,1.3-0.3,1.3-0.8
		C53.2,48.7,52.6,48.3,51.8,48.3z"/>
	<path class="st0" d="M51.8,58.8H32.1c-0.7,0-1.3,0.4-1.3,0.8c-0.1,0.5,0.5,1,1.3,1l19.7,0c0.7,0,1.3-0.3,1.3-0.8
		C53.2,59.3,52.6,58.8,51.8,58.8z"/>
	<path class="st0" d="M35.6,20.9c0.3,0.2,0.8,0.1,1.2,0.1c7.3,0,9.1,0,16.4,0c2.4,0,3.5,1.1,3.5,3.5c0,1.6,0,3.2,0,4.9
		c0,4.1,2.7,6.7,6.8,6.8c1.5,0,3.1,0,4.6,0c2.7,0,3.8,1.1,3.8,3.8c0,7.2,0,14.4,0,21.6h1.9c0-7.6,0-15.2,0-22.9
		c0-2.5-0.8-4.7-2.7-6.5c-3.5-3.5-7-7-10.5-10.5c-1.8-1.8-3.8-2.6-6.3-2.6c-7.8,0-10,0-17.8,0c-0.3,0-0.7-0.1-1,0
		c-0.3,0.2-0.8,0.6-0.8,0.9C34.8,20.3,35.2,20.7,35.6,20.9z M58.7,22.7c3.8,3.8,7.8,7.8,11.5,11.5c-2,0-4.3,0-6.6,0
		c-3.2,0-5-1.8-5-5C58.6,26.9,58.7,24.7,58.7,22.7z"/>
	<path class="st1" d="M75.9,71c0-0.4,0-0.9,0-1.3c0.1-1.6,0-3.1-1.3-4.2c-0.5-0.4-0.7-0.9-0.7-1.5h-2c0,0,0,0,0,0.1h-2.7
		c-0.2-1.6-0.5-3.2-0.7-4.8c-0.1-0.8,0-1.3,0.6-1.9c2.5-2.5,2.8-6.2,0.7-9.1c-2-2.8-5.7-3.7-8.8-2.3c-0.6,0.3-2.2,1.2-3,2.3
		c-1.1,1.5-1.2,2.7-1.3,4.1c0,4.3,2.6,4.6,2.8,6.2c0.3,1.7-0.4,3.6-0.7,5.5c-0.9,0-1.7,0-2.5,0c-2.3,0.1-4,1.7-4.2,3.9
		c-0.1,0.7-0.1,1.5,0,2.2c0,0.6-0.1,0.9-0.8,1.2c-1.3,0.5-2,1.8-1.8,3.1c0.2,1.3,1.3,2.3,2.7,2.3c4.3,0,8.5,0,12.8,0
		c0.4,0,0.8-0.6,1.2-0.9c-0.4-0.3-0.7-0.7-1.1-0.8c-0.6-0.1-1.2,0-1.9,0c-3.4,0-6.8,0-10.2,0c-0.7,0-1.6,0.1-1.6-0.9
		c0-1,0.8-1,1.5-1c7.3,0,14.7,0,22,0c0.7,0,1.6,0,1.5,1c0,0.9-0.8,0.9-1.5,0.9c-1.8,0-3.7,0-5.5,0c-0.7,0-1.5,0-1.4,1
		c0,0.9,0.8,0.9,1.5,0.9c0.3,0,0.5,0,0.8,0v0h5.4c1.1-0.1,2.1-0.6,2.5-2.2C78.7,73.1,78.1,72.2,75.9,71z M60.2,48.8
		c2.1-2.2,5.5-2.1,7.6,0c2.2,2.3,1.9,5.8-0.7,7.8c-0.8,0.6-0.8,1.3-0.7,2.1c0.2,1.8,0.5,3.5,0.8,5.3c-0.3,0-0.6,0.1-0.8,0.1
		c-1.8,0-3.6,0-5.6,0c0.3-2,0.5-3.8,0.8-5.6c0.1-0.8,0-1.4-0.7-1.9C58.3,54.6,58,51.1,60.2,48.8z M74,71.2H54
		c-0.4-4.1,0-5.4,4.6-5.3c4,0.1,7.9,0,11.9,0c2.7,0,3.5,0.8,3.5,3.5C74,70,74,70.6,74,71.2z"/>
	<path class="st0" d="M70.5,79.7c-0.9,0.8-2.1,1.2-3.7,1.2c-13.9,0-22.2,0-36.1,0c-3.5,0-5.3-1.8-5.3-5.3c0-14.3,0-28.6,0-42.8
		c0-2.4,0-4.9,0-7.3c0-2.5,1.8-4.3,4.3-4.5c0.7-0.1,1.4,0.1,2.1-0.1c0.4-0.1,0.6-0.6,1-0.9c-0.3-0.3-0.6-0.8-1-0.9
		c-5.7-0.6-8.2,3.1-8.2,7.1c0.1,16.5,0,33,0,49.5c0,4.5,2.6,7.1,7.1,7.1c13.7,0,21.8,0,35.5,0c3.4,0,5.3-0.8,6.6-3.1H70.5z"/>
</g>
</svg>
