<?xml version="1.0" encoding="utf-8"?>
<!-- Generator: Adobe Illustrator 25.4.8, SVG Export Plug-In . SVG Version: 6.00 Build 0)  -->
<svg version="1.1" id="Capa_1" xmlns="http://www.w3.org/2000/svg" xmlns:xlink="http://www.w3.org/1999/xlink" x="0px" y="0px"
	 viewBox="0 0 102 102" style="enable-background:new 0 0 102 102;" xml:space="preserve">
<style type="text/css">
	.st0{fill:#8D75B4;}
	.st1{fill:#48B488;}
</style>
<g>
	<path class="st0" d="M21.2,76.5c0-0.5,0-1,0-1.4c0-17.2,0-34.4,0-51.6c0-2,0.1-2,2-2c8.9,0,17.8,0,26.7,0c1.7,0,1.8,0.1,1.8,1.8
		c0,7.4,0,14.9,0,22.3c0,0.4,0,0.9,0,1.5c0.5,0,0.9,0,1.4,0c4.2,0,8.5,0,12.7,0c1.5,0,1.7,0.2,1.7,1.7c0,8.8,0,17.6,0,26.4
		c0,0.4,0,0.9,0,1.4c2,0,3.9,0,5.8,0c0.3-1.2,0.1-1.9-1.1-2.6c-3.6-2.1-3.6-8.3,0-10.5c1.7-1,3.7-0.8,5.2,0.6
		c3.1,2.8,2.4,8.4-1.4,10.3c-0.8,0.4-0.8,0.4-0.5,2.3c1.1,0,2.3,0,3.4,0c1,0,1.4,0.4,1.4,1.4c0,1.1,0,2.1,0,3.2
		c0,0.9-0.4,1.4-1.3,1.3c-0.2,0-0.4,0-0.6,0c-19.1,0-38.1,0-57.2,0c-1.9,0-2-0.1-2-2c0-0.6,0-1.2,0-1.8
		C19.2,76.7,19.2,76.7,21.2,76.5z M31,76.5c0-2.8,0-5.5,0-8.1c0-1.5,0.2-1.7,1.6-1.7c1.9,0,3.8,0,5.7,0c1.2,0,2.3,0,3.5,0
		c0-0.7,0-1.3,0-2c-0.9,0-1.7,0-2.5,0c-0.9,0-1.4-0.4-1.4-1.3c0-3.1,0-6.2,0-9.2c0-0.9,0.5-1.3,1.4-1.3c0.8,0,1.7,0,2.5,0
		c0-0.7,0-1.3,0-2c-0.8,0-1.6,0-2.4,0c-1.1,0.1-1.5-0.5-1.5-1.5c0-2.9,0-5.8,0-8.7c0-1.2,0.5-1.6,1.6-1.6c2.2,0,4.4,0,6.5,0
		c1.5,0,1.7,0.2,1.7,1.7c0,2,0,4.1,0,6.1c0.7,0,1.3,0,1.9,0c0-7.9,0-15.7,0-23.5c-8.9,0-17.7,0-26.5,0c0,17.7,0,35.4,0,53.1
		C25.8,76.5,28.3,76.5,31,76.5z M43.9,76.5c2.3,0,4.5,0,6.8,0c0-0.7,0-1.3,0-1.9c0.1-2.2,1.7-3.9,3.9-4c2.2,0,3.9,1.7,4,4
		c0,0.6,0,1.3,0,1.9c2.4,0,4.6,0,6.8,0c0-9.2,0-18.3,0-27.4c-7.2,0-14.4,0-21.6,0C43.9,58.2,43.9,67.3,43.9,76.5z M78.3,78.6
		c-19.1,0-38.1,0-57.1,0c0,0.6,0,1.2,0,1.8c19,0,38,0,57.1,0C78.3,79.8,78.3,79.3,78.3,78.6z M33,76.5c2.9,0,5.8,0,8.8,0
		c0-2.6,0-5.1,0-7.7c-3,0-5.8,0-8.8,0C33,71.4,33,73.9,33,76.5z M39.9,48.9c0.7,0,1.2,0,1.8,0C42,47,42,47,43.8,47
		c0.6,0,1.3,0,1.9,0c0-2,0-3.9,0-5.8c-2,0-3.9,0-5.8,0C39.9,43.8,39.9,46.3,39.9,48.9z M71.4,68.7c0,2.1,1.3,3.9,2.9,3.9
		c1.6,0,3-1.7,3-3.9c0-2.2-1.3-4-3-4C72.7,64.8,71.4,66.5,71.4,68.7z M41.8,62.7c0-2.7,0-5.2,0-7.8c-0.6,0-1.2,0-1.8,0
		c0,2.6,0,5.2,0,7.8C40.6,62.7,41.1,62.7,41.8,62.7z M56.6,76.5c-0.1-1.3,0.5-2.8-1-3.6c-0.5-0.3-1.5-0.2-2,0.1
		c-1.3,0.8-0.8,2.2-0.8,3.5C54,76.5,55.2,76.5,56.6,76.5z"/>
	<path class="st1" d="M82.9,31.5c0,8.7-9.3,14.4-17.1,10.5c-0.9-0.4-1.6-0.5-2.4,0c-0.9,0.4-1.8,0.8-2.7,1.1
		c-0.3,0.1-0.9,0.1-1.1-0.2c-0.2-0.3-0.4-0.9-0.2-1.2c1.5-2.4,1.2-4.7,0.3-7.4c-1.5-4.7,0.1-8.9,3.8-12c3.8-3.1,8.1-3.6,12.6-1.6
		C80.3,22.7,82.9,26.9,82.9,31.5z M62.2,40.2c2.5-0.8,2.5-0.8,4.8,0.2c4.3,2,9.4,0.6,12.1-3.3c2.7-3.9,2.3-9.2-1-12.5
		c-3.3-3.4-8.6-3.9-12.5-1.3c-3.9,2.6-5.6,7.8-3.5,12.1C62.8,37.1,63.4,38.5,62.2,40.2z"/>
	<path class="st0" d="M35.9,31.3c0,1.5,0,3,0,4.4c0,1.1-0.4,1.5-1.5,1.5c-2.3,0-4.6,0-6.9,0c-1,0-1.5-0.3-1.5-1.4c0-3,0-6,0-9
		c0-1.1,0.4-1.5,1.5-1.5c2.3,0,4.6,0,6.9,0c1.1,0,1.5,0.5,1.5,1.5C35.9,28.3,35.9,29.8,35.9,31.3z M33.9,35.1c0-2.7,0-5.2,0-7.8
		c-2,0-3.8,0-5.7,0c0,2.6,0,5.2,0,7.8C30.1,35.1,31.9,35.1,33.9,35.1z"/>
	<path class="st0" d="M37.9,31.2c0-1.5,0-3,0-4.4c0-1,0.4-1.4,1.4-1.4c2.4,0,4.8,0,7.1,0c1,0,1.4,0.5,1.4,1.4c0,3,0,6,0,9
		c0,1.1-0.5,1.5-1.5,1.4c-2.3,0-4.6,0-6.9,0c-1.1,0-1.5-0.5-1.5-1.6C37.9,34.1,37.9,32.6,37.9,31.2z M45.7,27.4c-2,0-3.9,0-5.8,0
		c0,2.6,0,5.2,0,7.7c2,0,3.8,0,5.8,0C45.7,32.5,45.7,30,45.7,27.4z"/>
	<path class="st0" d="M35.9,45c0,1.5,0,3,0,4.5c0,1-0.4,1.4-1.4,1.4c-2.4,0-4.8,0-7.1,0c-0.9,0-1.4-0.4-1.4-1.3c0-3.1,0-6.1,0-9.2
		c0-0.9,0.5-1.3,1.4-1.3c2.4,0,4.8,0,7.1,0c1,0,1.4,0.5,1.4,1.4C35.9,42,35.9,43.5,35.9,45z M33.9,41.2c-2,0-3.9,0-5.8,0
		c0,2.6,0,5.2,0,7.7c2,0,3.8,0,5.8,0C33.9,46.3,33.9,43.8,33.9,41.2z"/>
	<path class="st0" d="M26.1,58.7c0-1.5,0-3,0-4.4c0-1,0.4-1.4,1.4-1.4c2.4,0,4.8,0,7.1,0c0.9,0,1.4,0.4,1.3,1.3c0,3.1,0,6.1,0,9.2
		c0,0.9-0.4,1.3-1.3,1.3c-2.4,0-4.8,0-7.3,0c-0.9,0-1.4-0.4-1.3-1.3C26.1,61.8,26.1,60.3,26.1,58.7z M28.1,62.7c2,0,3.9,0,5.8,0
		c0-2.6,0-5.2,0-7.7c-2,0-3.9,0-5.8,0c0,2.5,0,4.8,0,7.2C28.1,62.3,28.1,62.5,28.1,62.7z"/>
	<path class="st0" d="M53.7,54.8c0,0.9,0,1.9,0,2.8c0,0.7-0.4,1.1-1.1,1.1c-1.8,0-3.7,0-5.5,0c-0.8,0-1.2-0.4-1.2-1.2
		c0-1.8,0-3.7,0-5.5c0-0.7,0.4-1.1,1.1-1.1c1.8,0,3.7,0,5.5,0c0.8,0,1.2,0.4,1.2,1.2C53.7,53,53.7,53.9,53.7,54.8z M47.8,52.9
		c0,1.3,0,2.6,0,3.8c1.3,0,2.6,0,3.8,0c0-1.3,0-2.6,0-3.8C50.3,52.9,49.1,52.9,47.8,52.9z"/>
	<path class="st0" d="M59.4,58.8c-0.9,0-1.7,0-2.6,0c-0.8,0-1.2-0.4-1.2-1.2c0-1.8,0-3.7,0-5.5c0-0.7,0.4-1.1,1.1-1.1
		c1.8,0,3.7,0,5.5,0c0.8,0,1.2,0.4,1.2,1.2c0,1.8,0,3.7,0,5.5c0,0.7-0.4,1.1-1.1,1.1C61.4,58.8,60.4,58.8,59.4,58.8z M61.5,53
		c-1.3,0-2.6,0-3.8,0c0,1.3,0,2.6,0,3.8c1.3,0,2.6,0,3.8,0C61.5,55.5,61.5,54.3,61.5,53z"/>
	<path class="st0" d="M53.7,64.8c0,0.9,0,1.8,0,2.7c0,0.8-0.4,1.2-1.2,1.2c-1.8,0-3.7,0-5.5,0c-0.7,0-1.1-0.4-1.1-1.1
		c0-1.8,0-3.7,0-5.5c0-0.8,0.4-1.2,1.2-1.2c1.8,0,3.7,0,5.5,0c0.7,0,1.1,0.4,1.1,1.1C53.7,62.9,53.7,63.8,53.7,64.8z M51.7,62.8
		c-1.4,0-2.6,0-3.8,0c0,1.3,0,2.5,0,3.8c1.3,0,2.6,0,3.8,0C51.7,65.3,51.7,64.1,51.7,62.8z"/>
	<path class="st0" d="M55.7,64.6c0-0.9,0-1.7,0-2.6c0-0.9,0.4-1.3,1.3-1.3c1.8,0,3.6,0,5.4,0c0.8,0,1.2,0.4,1.2,1.2
		c0,1.8,0,3.7,0,5.5c0,0.7-0.4,1.1-1.2,1.1c-1.8,0-3.7,0-5.5,0c-0.8,0-1.2-0.4-1.2-1.2C55.7,66.5,55.7,65.6,55.7,64.6z M61.5,66.6
		c0-1.3,0-2.6,0-3.8c-1.3,0-2.6,0-3.8,0c0,1.3,0,2.5,0,3.8C59,66.6,60.2,66.6,61.5,66.6z"/>
	<path class="st1" d="M70.9,23.6c2.3,0,4.1,0.9,5.3,2.9c1.1,2,0.9,3.9-0.2,5.8c-1.3,2-2.5,4.1-3.8,6.2c-0.8,1.3-1.5,1.3-2.3,0
		c-1.3-2-2.5-4.1-3.8-6.2c-1.2-1.9-1.4-3.8-0.3-5.7C66.9,24.6,68.7,23.7,70.9,23.6z M71,36.5c1.2-2,2.4-3.9,3.5-5.7
		c0.9-1.5,0.5-3.2-0.9-4.3c-1.5-1.2-3.8-1.2-5.2,0c-1.3,1.1-1.7,2.8-0.8,4.3C68.6,32.7,69.8,34.4,71,36.5z"/>
	<path class="st1" d="M70.9,32.5c-1.6,0-2.9-1.5-2.9-3.1c0.1-1.6,1.4-2.8,3-2.8c1.6,0,3,1.4,2.9,3C73.9,31.2,72.5,32.5,70.9,32.5z"
		/>
</g>
</svg>
