<?xml version="1.0" encoding="utf-8"?>
<!-- Generator: Adobe Illustrator 25.4.8, SVG Export Plug-In . SVG Version: 6.00 Build 0)  -->
<svg version="1.1" id="Capa_1" xmlns="http://www.w3.org/2000/svg" xmlns:xlink="http://www.w3.org/1999/xlink" x="0px" y="0px"
	 viewBox="0 0 102 102" style="enable-background:new 0 0 102 102;" xml:space="preserve">
<style type="text/css">
	.st0{fill:#8D75B4;}
	.st1{fill:#59B88F;}
</style>
<g>
	<path class="st0" d="M74.9,72.5C74.9,72.5,74.9,72.4,74.9,72.5c0-0.4,0.1-0.6,0.1-0.9l-1.8-2.5l-2.9,6.8c0.1,0.1,0.2,0.3,0.3,0.4
		c0.4,0.4,0.3,1.1-0.1,1.5c-0.2,0.2-0.4,0.3-0.7,0.3c-0.3,0-0.6-0.1-0.8-0.4c-1.6-1.9-2.2-3.7-2-5.5c0.2-1.4,0.9-2.3,1.5-2.9
		l-2.1-2.9v13.7c0,0.6-0.5,1.1-1.1,1.1H59l4.8,5l2.4,1.4l8.8-14.7C74.9,72.7,74.9,72.5,74.9,72.5z"/>
	<path class="st0" d="M48.2,20.1c-0.6,1.1-1.8,1.8-3.1,1.8c-1.3,0-2.5-0.7-3.1-1.8c-1.5,1.3-3.5,2.4-5.5,3.3h17.4
		C51.8,22.5,49.7,21.4,48.2,20.1z"/>
	<path class="st0" d="M75,67.1c-0.3,0.2-0.7,0.2-1,0.1l0,0.1c0.7,1.1,1.1,2.5,1.1,4.3c0,0.3,0,0.6-0.1,0.8c0,0,0,0.1,0,0.1
		c0,0,0,0.2,0,0.4l0.3-0.6c0.4-0.7,1.1-1.3,1.8-1.6c-0.1-2.6-1.2-4.6-2.7-6.2l0.8,1.1C75.6,66.1,75.4,66.8,75,67.1z"/>
	<path class="st0" d="M65.8,88.1l0.3-0.6l-2.4-1.4l-5.1-3c-0.2-0.2-1.3-0.9-2.7-2h-3.6c2.6,2,4.8,3.6,5,3.7c0,0,0.1,0,0.1,0.1
		l7.7,4.6C65.4,89,65.5,88.5,65.8,88.1z"/>
	<path class="st0" d="M80.6,71c-0.6-0.4-1.3-0.6-2-0.6c-0.5,0-1.1,0.1-1.5,0.3c-0.7,0.3-1.4,0.9-1.8,1.6l-0.3,0.6l-8.8,14.7
		l-0.3,0.6c-0.3,0.4-0.4,0.9-0.5,1.4c-0.2,1.5,0.4,3.1,1.9,4c0.6,0.4,1.3,0.6,2,0.6c1.4,0,2.7-0.7,3.4-1.9L82,76.3
		c0.5-0.9,0.7-2,0.4-3C82.2,72.3,81.5,71.5,80.6,71z M69.2,91.9c-0.3,0-0.6-0.1-0.9-0.3c-0.9-0.5-1.1-1.6-0.6-2.5l9.5-15.8
		c0.3-0.5,0.9-0.9,1.5-0.9c0.3,0,0.6,0.1,0.9,0.3c0.4,0.2,0.7,0.6,0.8,1.1c0.1,0.5,0,1-0.2,1.4L70.7,91
		C70.4,91.6,69.8,91.9,69.2,91.9z"/>
	<path class="st0" d="M56,81.1h3h6.4c0.6,0,1.1-0.5,1.1-1.1V66.3l-2.1-2.9V79H26.6V29.1h-0.3c-0.7,0-1.3-0.3-1.8-0.7v51.6
		c0,0.6,0.5,1.1,1.1,1.1h26.9H56z"/>
	<path class="st0" d="M64.7,29.1h-0.3v24.7c0.7-0.1,1.5,0.1,2.1,0.4V28.5C66,28.9,65.4,29.1,64.7,29.1z"/>
	<path class="st0" d="M64.4,53.8c-0.6,0.1-1.3,0.3-1.8,0.7c-1.7,1.2-2,3.5-0.8,5.2l2.7,3.7l2.1,2.9l2.1,2.9
		c-0.6,0.6-1.3,1.6-1.5,2.9c-0.3,1.8,0.4,3.6,2,5.5c0.2,0.2,0.5,0.4,0.8,0.4c0.2,0,0.5-0.1,0.7-0.3c0.4-0.4,0.5-1,0.1-1.5
		c-0.1-0.1-0.2-0.3-0.3-0.4c-0.9-1.2-1.3-2.3-1.2-3.3c0.2-1.4,1.4-2.2,1.5-2.2c0.2-0.2,0.4-0.4,0.5-0.7c0.1-0.3,0-0.6-0.2-0.8
		l-7.4-10.3c-0.5-0.7-0.4-1.7,0.4-2.2c0.7-0.5,1.7-0.4,2.2,0.4l7.4,10.3c0.1,0.2,0.3,0.3,0.4,0.4c0.3,0.1,0.7,0.1,1-0.1
		c0.5-0.3,0.6-1,0.2-1.5l-0.8-1.1l-6.6-9.2c-0.3-0.5-0.8-0.9-1.3-1.1C65.9,53.9,65.1,53.7,64.4,53.8z"/>
	<path class="st0" d="M26.4,29.1h0.3h37.8h0.3c0.7,0,1.3-0.2,1.8-0.6c0.6-0.5,1-1.3,1-2.2c0-1.6-1.3-2.8-2.9-2.8h-4.3
		c0,0,0.1,0,0.1,0c0.6,0.1,0.9,0.7,0.8,1.3c-0.1,0.5-0.5,0.8-1,0.8h4.4c0.4,0,0.7,0.3,0.7,0.7c0,0.4-0.3,0.7-0.7,0.7H26.4
		c-0.4,0-0.7-0.3-0.7-0.7c0-0.4,0.3-0.7,0.7-0.7h2.7c-0.2-0.1-0.4-0.4-0.5-0.6c-0.1-0.6,0.2-1.1,0.8-1.3c0.2-0.1,0.5-0.1,0.7-0.2
		h-3.8c-1.6,0-2.8,1.3-2.8,2.8c0,0.9,0.4,1.6,1,2.2C25,28.8,25.7,29.1,26.4,29.1z"/>
	<path class="st0" d="M60,25.5c-0.6-0.1-3.3-0.9-6.2-2.1H36.5c-2.5,1.1-5,1.8-6.1,2.1h29.9C60.2,25.5,60.1,25.5,60,25.5z"/>
	<path class="st0" d="M28.6,24.9c0.1,0.3,0.2,0.5,0.5,0.6c0.2,0.1,0.4,0.2,0.6,0.2c0.1,0,0.2,0,0.3,0c0.1,0,0.3-0.1,0.5-0.1
		c1.1-0.3,3.5-1,6.1-2.1c2-0.9,4-2,5.5-3.3c-0.3-0.5-0.5-1.1-0.5-1.7c0-0.4,0.1-0.8,0.2-1.1c-0.2,0.4-0.5,0.7-0.9,1.1
		c-1.5,1.4-4.1,2.7-6.5,3.7c-1.6,0.6-3.1,1.1-4.2,1.4c-0.3,0.1-0.5,0.1-0.7,0.2C28.8,23.7,28.5,24.3,28.6,24.9z"/>
	<path class="st0" d="M48.6,18.4c0,0.6-0.2,1.2-0.4,1.7c1.6,1.3,3.7,2.4,5.7,3.3c2.9,1.2,5.6,1.9,6.2,2.1c0.1,0,0.2,0,0.3,0
		c0,0,0,0,0,0c0,0,0,0,0,0c0.5,0,0.9-0.3,1-0.8c0.1-0.6-0.2-1.1-0.8-1.3c0,0-0.1,0-0.1,0c-1.1-0.3-2.9-0.8-4.8-1.6
		c-2.4-1-5-2.2-6.5-3.7c-0.3-0.3-0.5-0.5-0.7-0.8C48.5,17.7,48.6,18,48.6,18.4z"/>
	<path class="st0" d="M41.5,18.4c0,0.6,0.2,1.2,0.5,1.7c0.6,1.1,1.8,1.8,3.1,1.8c1.3,0,2.5-0.7,3.1-1.8c0.3-0.5,0.4-1.1,0.4-1.7
		c0-0.4-0.1-0.7-0.2-1c-0.4-1.5-1.8-2.5-3.4-2.5c-1.6,0-2.9,1-3.4,2.4C41.6,17.6,41.5,18,41.5,18.4z M46.5,18.4
		c0,0.8-0.6,1.4-1.4,1.4c-0.8,0-1.4-0.6-1.4-1.4S44.3,17,45,17C45.8,17,46.5,17.6,46.5,18.4z"/>
	<path class="st1" d="M59.6,39.6l-16.6,0c-0.6,0-1.1,0.4-1.1,1c-0.1,0.6,0.4,1.2,1.1,1.2h16.6c0.6,0,1.1-0.4,1.1-0.9
		C60.7,40.1,60.2,39.6,59.6,39.6z"/>
	<path class="st1" d="M59.6,49.5H43c-0.6,0-1.1,0.4-1.1,1c-0.1,0.6,0.4,1.2,1.1,1.2h16.6c0.6,0,1.1-0.4,1.1-0.9
		C60.7,50.1,60.2,49.5,59.6,49.5z"/>
	<path class="st1" d="M53.9,61.6c0.6,0,1.1-0.5,1.1-1.2c-0.1-0.5-0.6-0.9-1.1-0.9H42.2c-0.6,0-1.1,0.4-1.1,1
		c-0.1,0.6,0.4,1.2,1.1,1.2H53.9z"/>
	<path class="st1" d="M33.8,40.7c1.4-1.4,2.6-2.6,3.8-3.9c0.4-0.4,1-0.5,1.5-0.2c0.5,0.3,0.6,0.8,0.5,1.4c-0.1,0.2-0.2,0.4-0.4,0.6
		c-1.5,1.5-3,3-4.5,4.5c-0.6,0.6-1.2,0.6-1.8,0c-0.8-0.8-1.7-1.6-2.5-2.5c-0.6-0.6-0.6-1.2-0.1-1.7c0.5-0.5,1.2-0.5,1.8,0.1
		C32.7,39.5,33.2,40.1,33.8,40.7z"/>
	<path class="st1" d="M33.8,51.3c1.4-1.4,2.6-2.6,3.8-3.9c0.4-0.4,1-0.5,1.5-0.2c0.5,0.3,0.6,0.8,0.5,1.4c-0.1,0.2-0.2,0.4-0.4,0.6
		c-1.5,1.5-3,3-4.5,4.5c-0.6,0.6-1.2,0.6-1.8,0c-0.8-0.8-1.7-1.6-2.5-2.5c-0.6-0.6-0.6-1.2-0.1-1.7c0.5-0.5,1.2-0.5,1.8,0.1
		C32.7,50.1,33.2,50.7,33.8,51.3z"/>
	<path class="st1" d="M33.8,62c1.4-1.4,2.6-2.6,3.8-3.9c0.4-0.4,1-0.5,1.5-0.2c0.5,0.3,0.6,0.8,0.5,1.4c-0.1,0.2-0.2,0.4-0.4,0.6
		c-1.5,1.5-3,3-4.5,4.5c-0.6,0.6-1.2,0.6-1.8,0c-0.8-0.8-1.7-1.6-2.5-2.5c-0.6-0.6-0.6-1.2-0.1-1.7c0.5-0.5,1.2-0.5,1.8,0.1
		C32.7,60.7,33.2,61.3,33.8,62z"/>
</g>
</svg>
