<?xml version="1.0" encoding="utf-8"?>
<!-- Generator: Adobe Illustrator 27.0.0, SVG Export Plug-In . SVG Version: 6.00 Build 0)  -->
<svg version="1.1" id="Capa_1" xmlns="http://www.w3.org/2000/svg" xmlns:xlink="http://www.w3.org/1999/xlink" x="0px" y="0px"
	 viewBox="0 0 102 102" style="enable-background:new 0 0 102 102;" xml:space="preserve">
<style type="text/css">
	.st0{fill:#AD75F5;}
	.st1{fill:#47B287;}
</style>
<g>
	<path class="st0" d="M8,88.6c0-0.7,0-1.4,0-2.1c0-25.1,0-50.2,0-75.2c0-2.9,0.1-3,2.9-3c13,0,26,0,39,0c2.5,0,2.7,0.2,2.7,2.6
		c0,10.8,0,21.7,0,32.5c0,0.7,0,1.3,0,2.2c0.7,0,1.4,0,2,0c6.2,0,12.3,0,18.5,0c2.2,0,2.5,0.3,2.5,2.5c0,12.8,0,25.6,0,38.4
		c0,0.7,0,1.3,0,2.1c2.9,0,5.7,0,8.5,0c0.4-1.7,0.2-2.8-1.7-3.8c-5.3-3-5.2-12,0-15.2c2.5-1.5,5.4-1.2,7.6,0.8
		c4.5,4.1,3.5,12.2-2,15c-1.1,0.6-1.1,0.6-0.8,3.4c1.6,0,3.3,0,5,0c1.4,0,2.1,0.6,2.1,2c0,1.6,0,3.1,0,4.7c0,1.4-0.6,2-2,1.9
		c-0.3,0-0.6,0-0.9,0c-27.8,0-55.5,0-83.3,0c-2.8,0-2.9-0.1-2.9-3c0-0.9,0-1.8,0-2.7C5.1,89,5.1,88.9,8,88.6z M22.3,88.7
		c0-4.1,0-8,0-11.9c0-2.1,0.3-2.4,2.4-2.4c2.8,0,5.5,0,8.3,0c1.7,0,3.4,0,5.1,0c0-1.1,0-1.9,0-2.9c-1.3,0-2.5,0-3.6,0
		c-1.3,0-2-0.5-2-1.9c0-4.5,0-9,0-13.5c0-1.4,0.7-1.9,2-1.9c1.2,0,2.5,0,3.7,0c0-1.1,0-1.9,0-2.9c-1.2,0-2.3-0.1-3.5,0
		c-1.6,0.1-2.2-0.7-2.2-2.3c0.1-4.2,0.1-8.5,0-12.7c0-1.7,0.7-2.3,2.4-2.3c3.2,0.1,6.3,0,9.5,0c2.2,0,2.5,0.3,2.5,2.5
		c0,3,0,5.9,0,8.9c1.1,0,1.9,0,2.8,0c0-11.5,0-22.8,0-34.2c-12.9,0-25.7,0-38.6,0c0,25.9,0,51.6,0,77.4
		C14.8,88.7,18.5,88.7,22.3,88.7z M41.1,88.7c3.4,0,6.6,0,10,0c0-1,0-1.9,0-2.7c0.1-3.3,2.5-5.7,5.6-5.8c3.2-0.1,5.7,2.4,5.8,5.8
		c0,0.9,0,1.9,0,2.8c3.5,0,6.7,0,9.9,0c0-13.4,0-26.7,0-40c-10.5,0-21,0-31.4,0C41.1,62,41.1,75.3,41.1,88.7z M91.2,91.7
		c-27.8,0-55.5,0-83.1,0c0,0.9,0,1.8,0,2.7c27.7,0,55.4,0,83.1,0C91.2,93.5,91.2,92.7,91.2,91.7z M25.3,88.6c4.3,0,8.5,0,12.8,0
		c0-3.8,0-7.5,0-11.2c-4.3,0-8.5,0-12.8,0C25.3,81.2,25.3,84.8,25.3,88.6z M35.4,48.4c1,0,1.8,0,2.7,0c0.2-2.7,0.3-2.8,2.9-2.8
		c0.9,0,1.9,0,2.8,0c0-3,0-5.7,0-8.5c-2.9,0-5.7,0-8.4,0C35.4,41,35.4,44.7,35.4,48.4z M81.3,77.3c0,3.1,1.9,5.7,4.3,5.7
		c2.3,0,4.3-2.5,4.3-5.6c0-3.2-2-5.9-4.4-5.8C83.2,71.6,81.2,74.2,81.3,77.3z M38,68.6c0-3.9,0-7.6,0-11.3c-0.9,0-1.7,0-2.7,0
		c0,3.8,0,7.5,0,11.3C36.3,68.6,37.1,68.6,38,68.6z M59.7,88.7c-0.1-2,0.7-4.1-1.5-5.2c-0.8-0.4-2.2-0.3-3,0.1
		c-1.9,1.2-1.2,3.2-1.2,5.1C55.9,88.7,57.7,88.7,59.7,88.7z"/>
	<path class="st1" d="M97.9,23.1c0,12.7-13.5,21.1-24.9,15.3c-1.3-0.6-2.3-0.7-3.5,0c-1.3,0.7-2.6,1.2-4,1.7
		c-0.5,0.2-1.3,0.1-1.6-0.2c-0.3-0.4-0.5-1.3-0.3-1.7c2.2-3.6,1.7-6.9,0.5-10.9c-2.2-6.8,0.1-12.9,5.6-17.5
		c5.5-4.6,11.8-5.3,18.3-2.3C94.2,10.3,97.9,16.4,97.9,23.1z M67.8,35.8c3.7-1.2,3.7-1.2,7,0.3C81,39,88.5,37,92.4,31.3
		c4-5.7,3.3-13.4-1.5-18.3C86,8.1,78.4,7.3,72.7,11.1c-5.7,3.8-8.1,11.3-5.1,17.6C68.7,31.2,69.6,33.3,67.8,35.8z"/>
	<path class="st0" d="M29.5,22.7c0,2.2,0,4.3,0,6.5c0,1.5-0.7,2.1-2.2,2.1c-3.3,0-6.7,0-10,0c-1.5,0-2.2-0.5-2.2-2.1
		c0-4.4,0-8.7,0-13.1c0-1.5,0.7-2.1,2.2-2.1c3.3,0,6.7,0.1,10,0c1.6,0,2.3,0.7,2.2,2.3C29.5,18.4,29.5,20.6,29.5,22.7z M26.5,28.3
		c0-3.9,0-7.6,0-11.3c-2.9,0-5.6,0-8.4,0c0,3.8,0,7.5,0,11.3C21,28.3,23.7,28.3,26.5,28.3z"/>
	<path class="st0" d="M32.4,22.6c0-2.2,0-4.3,0-6.5c0-1.4,0.5-2.1,2-2.1c3.5,0,6.9,0,10.4,0c1.5,0,2,0.7,2,2.1c0,4.4,0,8.7,0,13.1
		c0,1.6-0.7,2.1-2.2,2.1c-3.3,0-6.7-0.1-10,0c-1.7,0-2.2-0.7-2.2-2.3C32.5,26.9,32.4,24.7,32.4,22.6z M43.8,17.1c-2.9,0-5.7,0-8.4,0
		c0,3.8,0,7.6,0,11.3c2.9,0,5.6,0,8.4,0C43.8,24.6,43.8,20.9,43.8,17.1z"/>
	<path class="st0" d="M29.5,42.7c0,2.2,0,4.4,0,6.6c0,1.4-0.6,2.1-2,2.1c-3.5,0-6.9,0-10.4,0c-1.3,0-2-0.6-2-1.9c0-4.5,0-9,0-13.4
		c0-1.4,0.7-1.9,2-1.9c3.5,0,6.9,0,10.4,0c1.5,0,2,0.7,2,2.1C29.5,38.4,29.5,40.6,29.5,42.7z M26.6,37.2c-2.9,0-5.7,0-8.4,0
		c0,3.9,0,7.6,0,11.3c2.9,0,5.6,0,8.4,0C26.6,44.7,26.6,41,26.6,37.2z"/>
	<path class="st0" d="M15.2,62.8c0-2.2,0-4.3,0-6.5c0-1.4,0.6-2.1,2-2.1c3.5,0,6.9,0,10.4,0c1.3,0,2,0.6,2,1.9c0,4.5,0,9,0,13.4
		c0,1.3-0.6,1.9-1.8,1.9c-3.5,0-7,0-10.6,0c-1.3,0-2-0.6-2-1.9C15.2,67.3,15.2,65,15.2,62.8z M18.1,68.5c2.9,0,5.6,0,8.4,0
		c0-3.8,0-7.5,0-11.3c-2.9,0-5.6,0-8.5,0c0,3.6,0,7,0,10.5C18.1,68,18.1,68.2,18.1,68.5z"/>
	<path class="st0" d="M55.4,57.1c0,1.4,0,2.7,0,4.1c0,1.1-0.6,1.7-1.7,1.7c-2.7,0-5.4,0-8.1,0c-1.2,0-1.8-0.6-1.8-1.8
		c0-2.7,0-5.4,0-8.1c0-1.1,0.6-1.7,1.7-1.7c2.7,0,5.4,0,8.1,0c1.2,0,1.8,0.6,1.8,1.8C55.4,54.5,55.4,55.8,55.4,57.1z M46.9,54.3
		c0,2,0,3.8,0,5.6c1.9,0,3.7,0,5.5,0c0-1.9,0-3.7,0-5.6C50.5,54.3,48.8,54.3,46.9,54.3z"/>
	<path class="st0" d="M63.8,62.9c-1.3,0-2.5,0-3.8,0c-1.2,0-1.8-0.6-1.8-1.8c0-2.7,0-5.4,0-8.1c0-1.1,0.6-1.7,1.7-1.7
		c2.7,0,5.4,0,8.1,0c1.2,0,1.8,0.6,1.8,1.8c0,2.7,0,5.4,0,8.1c0,1.1-0.6,1.7-1.7,1.7C66.6,62.9,65.2,62.9,63.8,62.9z M66.8,54.4
		c-2,0-3.8,0-5.6,0c0,1.9,0,3.7,0,5.5c1.9,0,3.7,0,5.6,0C66.8,58,66.8,56.3,66.8,54.4z"/>
	<path class="st0" d="M55.4,71.6c0,1.3,0,2.6,0,3.9c0,1.2-0.6,1.8-1.8,1.8c-2.7,0-5.4,0-8.1,0c-1.1,0-1.7-0.6-1.7-1.7
		c0-2.7,0-5.4,0-8.1c0-1.2,0.6-1.8,1.8-1.8c2.7,0,5.4,0,8.1,0c1.1,0,1.7,0.6,1.7,1.7C55.4,68.8,55.4,70.2,55.4,71.6z M52.4,68.7
		c-2,0-3.7,0-5.5,0c0,1.9,0,3.7,0,5.5c1.9,0,3.7,0,5.5,0C52.4,72.4,52.4,70.6,52.4,68.7z"/>
	<path class="st0" d="M58.3,71.4c0-1.3,0-2.5,0-3.8c0-1.3,0.6-1.9,1.9-1.8c2.6,0,5.3,0,7.9,0c1.2,0,1.8,0.6,1.8,1.8
		c0,2.7,0,5.4,0,8.1c0,1.1-0.6,1.7-1.7,1.7c-2.7,0-5.4,0-8.1,0c-1.2,0-1.8-0.6-1.7-1.8C58.3,74.1,58.3,72.7,58.3,71.4z M66.8,74.3
		c0-1.9,0-3.8,0-5.5c-1.9,0-3.7,0-5.5,0c0,1.9,0,3.7,0,5.5C63.1,74.3,64.9,74.3,66.8,74.3z"/>
	<path class="st1" d="M80.5,11.6c3.4,0.1,6,1.3,7.7,4.2c1.7,2.9,1.4,5.7-0.4,8.5c-1.9,3-3.7,6-5.5,9c-1.2,1.8-2.1,1.8-3.3,0
		c-1.9-3-3.7-6-5.5-9c-1.7-2.7-2-5.5-0.4-8.3C74.7,13,77.3,11.7,80.5,11.6z M80.7,30.4c1.8-3,3.5-5.6,5.1-8.4
		c1.3-2.2,0.7-4.7-1.3-6.3c-2.1-1.8-5.5-1.7-7.6,0c-2,1.6-2.5,4.1-1.2,6.3C77.1,24.8,78.8,27.4,80.7,30.4z"/>
	<path class="st1" d="M80.5,24.5c-2.4-0.1-4.3-2.1-4.2-4.5c0.1-2.3,2.1-4.1,4.4-4.1c2.4,0,4.3,2,4.3,4.4
		C84.9,22.7,82.8,24.6,80.5,24.5z"/>
</g>
</svg>
