<?xml version="1.0" encoding="utf-8"?>
<!-- Generator: Adobe Illustrator 25.4.8, SVG Export Plug-In . SVG Version: 6.00 Build 0)  -->
<svg version="1.1" id="Capa_1" xmlns="http://www.w3.org/2000/svg" xmlns:xlink="http://www.w3.org/1999/xlink" x="0px" y="0px"
	 viewBox="0 0 102 102" style="enable-background:new 0 0 102 102;" xml:space="preserve">
<style type="text/css">
	.st0{fill:#66539F;}
	.st1{fill:#54B57D;}
</style>
<g>
	<path class="st0" d="M44.5,72.8c-0.2-0.4-0.6-0.7-0.6-1.1c0.2-1.8,0.5-3.6,0.8-5.3l0.5-6.9c0-3.5,0-7,0-10.4c0-1.8-1-2.9-2.5-3
		c-0.3,0-0.7,0-1,0c-0.3-2.1-1.7-2.9-3.7-2.6c0-1.3,0-2.4,0-3.6c0-0.6-0.1-1.2-0.9-1.2c-0.8,0-0.8,0.6-0.8,1.2c0,0.5,0,1.1,0,1.7
		c-2-0.3-3.2,0.5-3.7,2.2c-2.7,0-3.6,0.8-3.6,3.5c0,2.3,0,4.5,0,6.8v3.2c-0.8-0.6-1.4-1.1-2-1.5c-1.4-1.1-2.7-1.2-3.8-0.3
		c-1.1,0.9-1.3,2.2-0.5,3.9c2.1,4.1,4.7,7.8,8.1,11c0.9,0.9,0.8,1.7,0,2.5c-0.5,0.5-1,1.3-1.1,2.1c-0.2,1.3-0.1,2.6,0,3.8
		c0,0.4,0.5,0.7,0.8,1.1c0.3-0.4,0.8-0.7,0.8-1.1c0.1-1.1,0.1-2.3,0-3.4c0-1,0.4-1.4,1.3-1.4c3.3,0,6.7,0,10,0c1,0,1.4,0.4,1.3,1.4
		c0,1.1-0.1,2.3,0,3.4c0,0.4,0.5,0.7,0.8,1.1c0.3-0.4,0.8-0.7,0.8-1.1c0.1-1.2,0.2-2.5,0-3.7C45.6,74.2,44.9,73.5,44.5,72.8z
		 M43.6,63.5c0,1-0.2,1.9-0.4,2.9c-0.4,1.9-0.9,3.8-1.4,5.9h-8.7c0.7-2-0.8-2.9-1.9-4c-2.9-2.9-5.2-6.2-7-9.9
		c-0.2-0.4,0-1.1,0.1-1.6c0.5,0.1,1.2,0,1.6,0.3c0.8,0.5,1.5,1.3,2.3,1.8c0.5,0.3,1.2,0.5,1.6,0.3c0.4-0.2,0.8-1,0.8-1.5
		c0.1-3.4,0-6.8,0-10.2c0-0.3-0.1-0.6,0-0.8c0.3-0.4,0.6-0.8,0.9-1.2c0.3,0.4,0.7,0.7,1,1.2c0.1,0.2,0,0.6,0,0.9c0,2.3,0,4.7,0,7
		c0,0.6,0.1,1.2,0.8,1.2c0.7,0,0.8-0.6,0.8-1.2c0-3.1,0-6.2,0-9.3c0-0.3-0.1-0.7,0-0.9c0.2-0.4,0.6-0.7,0.9-1.1
		c0.3,0.4,0.7,0.7,1,1.1c0.1,0.2,0,0.5,0,0.8c0,3,0,5.9,0,8.9c0,0.6,0.1,1.2,0.8,1.2c0.7,0,0.8-0.6,0.8-1.2c0-2.5,0-5,0-7.4
		c0-0.7,0-1.5,1-1.4c0.9,0,1,0.7,1,1.5c0,2.4,0,4.9,0,7.3c0,0.6,0,1.3,0.9,1.3c0.8,0,0.8-0.7,0.8-1.3c0-1.6,0-3.2,0-4.7
		c0-0.7,0.1-1.4,0.9-1.4c0.9,0,1,0.7,1,1.4C43.6,54,43.6,58.7,43.6,63.5z"/>
	<path class="st0" d="M78.8,53.5c-1.1-0.9-2.5-0.8-3.8,0.2c-0.7,0.5-1.3,1-2.2,1.7c0-3.7,0-7.2,0-10.6c0-2.5-1.2-3.6-3.7-3.3
		c-0.9-2.7-3.4-3.3-5.3-1.1c0-0.1-2,3.6-4,6.4c-1.9,2.6-3.9,4.2-3.8,7.8c0.1,1.7,0,3.4,0,5.1c-0.1,2.7,0.2,5.3,1.2,7.8
		c0.2,0.4,0.2,1,0.2,1.4c0,3.2,0,6.4,0,9.6c0,0.6,0,1.3,0.8,1.3c0.8,0,0.9-0.7,0.9-1.3c0-3,0.1-5.9,0-8.9c0-1.2-0.4-2.4-0.6-3.6
		c-0.3-1.5-0.7-3-0.7-4.5c-0.1-2.5,0.1-5-0.1-7.5c-0.1-1.9,1-2.9,2.1-4.3c0,0.9,0,1.5,0,2.1c0,0.6-0.1,1.4,0.8,1.4
		c1,0,0.9-0.8,0.9-1.5c0-0.9,0.1-1.8,0-2.7c-0.3-2.1,1-3.7,2-5.6c0,0.7,0.1,1,0.1,1.4c0,2.5,0,5,0,7.4c0,0.4,0.4,0.9,0.8,1
		c0.7,0.1,0.9-0.4,0.9-1c0-0.3,0-0.5,0-0.8c0-2.9,0-5.9,0-8.8c0-0.8,0-1.8,1.1-1.7c1.1,0,1,1,1,1.8c0,3.1,0,6.2,0,9.4
		c0,0.3-0.1,0.6,0,0.8c0.2,0.4,0.5,0.7,0.8,1c0.3-0.3,0.6-0.6,0.8-1c0.1-0.2,0-0.5,0-0.8c0-2.5,0-5,0-7.4c0-0.7,0.1-1.3,1-1.3
		c0.9,0,1.1,0.6,1.1,1.4c0,0.3,0,0.5,0,0.8c0,3.5,0,7,0,10.5c0,0.5,0.4,1.2,0.8,1.4c0.4,0.2,1.2,0,1.6-0.3c0.9-0.5,1.6-1.2,2.4-1.9
		c0.6-0.5,1.1-0.8,1.8-0.3c0.6,0.5,0.4,1.2,0.1,1.7c-1.2,2-2.4,3.9-3.6,5.9c-0.3,0.5-0.9,1.1-0.2,1.7c0.8,0.6,1.2-0.1,1.6-0.7
		c1.3-2,2.5-4.1,3.7-6.2C80.1,55.8,79.9,54.4,78.8,53.5z"/>
	<path class="st1" d="M36.3,41.6V43h1.7c0-1.1,0-2.1,0-3.2c0-0.6-0.1-1.2-0.9-1.2c-0.8,0-0.8,0.6-0.8,1.2
		C36.3,40.4,36.3,41,36.3,41.6C36.3,41.6,36.3,41.6,36.3,41.6z"/>
	<path class="st1" d="M63.3,39.8c-1.5-1.8-3.1-1.9-5.1-0.3c-0.8,0.6-1.6,1.2-2.6,2c0-2.2,0-4.1,0-6.1c0-0.6-0.2-1.3-0.9-1.1
		C54.4,34.4,54,35,54,35.4c-0.1,2.1-0.1,4.3,0,6.4c0,0.5,0.4,1.2,0.9,1.5c0.4,0.2,1.2,0,1.6-0.3c1.1-0.7,2-1.6,3-2.4
		c0.7-0.5,1.4-0.8,2.1-0.2c0.8,0.6,0.6,1.3,0.2,2.1c-2.3,4.6-5.2,8.8-8.9,12.4c-1.3,1.3-2.3,2.5-2,4.4c0,0.1-0.1,0.1-0.1,0.2h-5.1
		v1.8c2.1,0,4,0,6,0c0.8,0,1.3,0.5,1.4,1.4c0,0.6,0,1.2,0,1.9h-7.4v1.7H49v0.2h4.1v1.4c0,3.6,0,7.1,0,10.7c0,0.6,0.1,1.4,0.9,1.3
		c0.3,0,0.8-0.8,0.8-1.2c0.1-5.3,0-10.6,0-15.9c0-1.1-0.5-2-1.4-2.7c-0.8-0.6-1-2.1-0.4-2.8c0.9-1,1.8-1.9,2.7-2.8l0,0l5.6-6.5
		C63.8,44.2,65,41.8,63.3,39.8z"/>
	<path class="st1" d="M40.6,27.8c0.6-2.8,1.7-3.6,4.5-3.2c0.6-1.6,1.6-2.6,3.4-2.4c1.7,0.2,2.5,1.3,2.8,2.9c3.1-0.4,4.4,0.7,4.4,3.8
		c0,0.6,0,1.3,0,1.9c0,0.6,0.1,1.4-0.8,1.4c-1,0-0.9-0.8-0.9-1.5c0-0.9,0-1.7,0-2.6c0-0.9-0.4-1.5-1.3-1.5c-1,0-1.4,0.6-1.4,1.5
		c0,3.2,0,6.3,0,9.5c0,0.4-0.2,0.9-0.4,1.2c-0.1,0.1-0.7,0.2-0.8,0.1c-0.3-0.3-0.5-0.7-0.5-1c0-2.8,0-5.6,0-8.4c0-1.3,0-2.6,0-3.9
		c0-1.1-0.5-1.7-1.4-1.6c-1,0.1-1.3,0.7-1.3,1.6c0,3.6,0,7.3,0,10.9c0,0.3,0.1,0.7,0,1c-0.2,0.4-0.5,0.7-0.8,1
		c-0.3-0.3-0.8-0.7-0.8-1c-0.1-1.4,0-2.9,0-4.3c0-1.8,0-3.5,0-5.3c0-1.1-0.5-1.7-1.4-1.7c-1.1,0.1-1.3,0.8-1.3,1.7
		c0,3.1,0,6.2,0,9.2c0,0.4-0.2,1-0.5,1.2c-0.6,0.4-1.1-0.2-1.2-1.1c0-2,0-4,0-6c0-1.2-0.4-1.8-1.3-1.9c-0.9,0-1.4,0.6-1.4,1.9
		c0,1.4,0,2.9,0,4.3c0,0.6-0.1,1.1-0.8,1.1c-0.7,0-0.8-0.5-0.8-1.1c0-1.5,0-3.1,0-4.6c0-2.2,1.5-3.5,3.8-3.1
		C40.2,27.8,40.4,27.8,40.6,27.8z"/>
	<path class="st0" d="M72.3,65.3c0.2,0.2,0.6,0.3,0.6,0.5c0.1,0.3,0,0.8-0.2,1c-0.6,0.7-1.3,1.3-1.9,2c-0.3,0.4-0.6,0.9-0.6,1.4
		c-0.1,2.8,0,5.5,0,8.3c0,0.4-0.2,0.8-0.4,1.1c-0.1,0.1-0.6,0.2-0.7,0.1c-0.3-0.2-0.6-0.6-0.6-0.9c0-3.3,0-6.6,0-9.9
		c0-0.2,0.1-0.5,0.2-0.6c0.9-1,1.9-1.9,2.9-2.8C71.8,65.5,72,65.4,72.3,65.3z"/>
</g>
</svg>
